<?xml version="1.0" encoding="utf-8"?>
<!-- Generator: Adobe Illustrator 27.9.0, SVG Export Plug-In . SVG Version: 6.00 Build 0)  -->
<svg version="1.1" id="Capa_1" xmlns="http://www.w3.org/2000/svg" xmlns:xlink="http://www.w3.org/1999/xlink" x="0px" y="0px"
	 viewBox="0 0 857 295.1" style="enable-background:new 0 0 857 295.1;" xml:space="preserve">
<style type="text/css">
	.st0{fill:#FFFFFF;}
	.st1{fill:none;}
</style>
<g>
	<path class="st0" d="M425.3,176.6h-19V237h-33.7V63.5h52.7c35.5,0,66,17,66,54.2C491.4,151.2,466.2,176.6,425.3,176.6z M424.5,92
		h-18.2v58.1h18.2c19.8,0,31.1-12.1,31.1-31.1C455.6,101.3,443.8,92,424.5,92z"/>
	<path class="st0" d="M517.1,237V63.5h33.7V237H517.1z"/>
	<path class="st0" d="M607.8,237h-32.9l47-173.5h56L723.4,237h-37.8l-9-39.1H617L607.8,237z M642.2,93.1l-19,77.6h47.3l-17.7-77.6
		H642.2z"/>
	<path class="st0" d="M789.7,239.6c-23.1,0-42.7-8.2-56.5-18.5l12.8-26.5c10,8.7,28.3,16.7,44.2,16.7s26.7-9.8,26.7-22.9
		c0-36.8-80.2-18.5-80.2-79.7c0-26.2,20.6-47.8,61.2-47.8c20.3,0,37.5,4.4,51.7,11.8l-11.3,27c-9.5-5.7-24.9-9.5-40.9-9.5
		c-15.7,0-26,5.1-26,18c0,31.1,80.7,19,80.7,78.1C852.2,213.9,829.3,239.6,789.7,239.6z"/>
</g>
<g>
	<g>
		<g>
			<path class="st0" d="M156.8,268.6c-1.8,0.9-3.3,1.2-5,1.2c-4,0-5.9-2.8-5.9-7.1c0-4.1,2-6.8,6.2-6.8c2.1,0,3.4,0.5,4.4,1.2
				l-1.1,2c-0.8-0.5-1.9-0.9-3.3-0.9c-2.4,0-3.5,1.8-3.5,4.5c0,3.2,1.2,4.9,3.4,4.9c0.9,0,1.7-0.2,2.3-0.5v-2.5h-1.9l-0.1-1.9h4.4
				V268.6z"/>
			<path class="st0" d="M167.6,264.8c0,3.3-1.7,5.1-4.6,5.1c-2.9,0-4.6-1.8-4.6-5.1c0-2.9,1.6-5.1,4.6-5.1
				C166,259.7,167.6,261.9,167.6,264.8 M165,264.8c0-2.3-0.7-3.2-1.9-3.2c-1.2,0-1.9,0.8-1.9,3.2c0,2.3,0.6,3.2,1.9,3.2
				C164.3,267.9,165,267.1,165,264.8"/>
			<path class="st0" d="M172,260.9c0.4-0.6,1.5-1.2,2.6-1.2c2.3,0,3.9,1.6,3.9,5.1c0,3.4-2,5.1-4.3,5.1c-1.4,0-2.2-0.5-2.8-1.4
				l-0.5,1.2h-1.4v-13.7h2.6v3.4L172,260.9z M172.2,266.9c0.4,0.5,1.1,1,1.8,1c1.1,0,2-0.8,2-3.2c0-2.3-0.7-3.1-1.9-3.1
				c-0.7,0-1.4,0.3-1.8,0.8V266.9z"/>
			<path class="st0" d="M181.3,269.6v-7.8l-1.1-0.2v-1.7h3.7v9.7H181.3z M181.2,255.9h2.6v2.4h-2.6V255.9z"/>
			<path class="st0" d="M188.5,265.5c0,1.6,0.9,2.4,2.5,2.4c1,0,2-0.4,2.8-0.8l0.5,1.8c-0.8,0.4-2.1,1-3.7,1c-3,0-4.8-1.9-4.8-5.1
				c0-3,1.4-5.1,4.6-5.1c2.9,0,4.1,2.2,4.1,4.6v1.1H188.5z M190.3,261.6c-1.3,0-1.8,1.2-1.8,2.3h3.6
				C192,262.7,191.6,261.6,190.3,261.6"/>
			<path class="st0" d="M202,262.1c-0.3-0.1-0.8-0.2-1.2-0.2c-0.7,0-1.3,0.3-1.8,0.7v7.1h-2.6v-9.7h1.8c0.1,0.5,0.2,0.9,0.3,1.3h0.1
				c0.3-0.7,1.2-1.5,2.3-1.5c0.5,0,0.9,0.1,1.1,0.1C202.1,260.6,202.1,261.3,202,262.1"/>
			<path class="st0" d="M209.7,269.6v-5.8c0-1.5-0.6-2.2-1.8-2.2c-0.7,0-1.3,0.3-1.7,0.6v7.4h-2.6v-9.7h1.8l0.4,1.1
				c0.6-0.7,1.6-1.3,3.1-1.3c2.5,0,3.4,1.5,3.4,3.9v6H209.7z"/>
			<path class="st0" d="M223.2,264.8c0,3.3-1.7,5.1-4.6,5.1c-2.9,0-4.6-1.8-4.6-5.1c0-2.9,1.6-5.1,4.6-5.1
				C221.6,259.7,223.2,261.9,223.2,264.8 M220.5,264.8c0-2.3-0.7-3.2-1.9-3.2c-1.2,0-1.9,0.8-1.9,3.2c0,2.3,0.6,3.2,1.9,3.2
				C219.9,267.9,220.5,267.1,220.5,264.8"/>
			<path class="st0" d="M235.8,260.7c-0.2-0.6-0.2-1.1-0.2-1.8v-2.9h2.6v13.7h-2.1l-0.3-1.1c-0.4,0.6-1.3,1.3-2.6,1.3
				c-2.2,0-4-1.6-4-5.1c0-3.2,1.8-5.1,4.2-5.1C234.5,259.7,235.3,260.1,235.8,260.7 M235.6,262.1c-0.4-0.2-1-0.5-1.8-0.5
				c-1.2,0-2,0.8-2,3.1c0,2.3,0.7,3.2,2,3.2c0.7,0,1.3-0.3,1.8-0.8V262.1z"/>
			<path class="st0" d="M242.8,265.5c0,1.6,0.9,2.4,2.5,2.4c1,0,2-0.4,2.9-0.8l0.5,1.8c-0.8,0.4-2.1,1-3.7,1c-3,0-4.8-1.9-4.8-5.1
				c0-3,1.4-5.1,4.6-5.1c2.9,0,4.1,2.2,4.1,4.6v1.1H242.8z M244.6,261.6c-1.3,0-1.8,1.2-1.8,2.3h3.6
				C246.4,262.7,246,261.6,244.6,261.6"/>
			<path class="st0" d="M260.7,269.8c-3.8,0-5.8-2.5-5.8-7c0-4.1,2-6.9,5.8-6.9c1.8,0,3.5,0.4,4.6,1.1l-1,2.1
				c-0.7-0.5-1.9-0.9-3.3-0.9c-2.2,0-3.3,1.7-3.3,4.6c0,3.1,1.1,4.8,3.3,4.8c1.3,0,2.6-0.6,3.5-1.2l0.8,2.1
				C264,269.3,262.5,269.8,260.7,269.8"/>
			<path class="st0" d="M267.1,269.6v-13.7h2.6v3.6c0,0.7-0.2,1.4-0.3,1.5c0.6-0.7,1.4-1.3,2.8-1.3c2.8,0,3.6,1.5,3.6,3.9v6h-2.6
				v-5.8c0-0.3,0-0.5-0.1-0.6c-0.1-1.1-0.6-1.6-1.6-1.6c-0.7,0-1.3,0.3-1.7,0.6v7.4H267.1z"/>
			<path class="st0" d="M278.7,269.6v-7.8l-1.1-0.2v-1.7h3.7v9.7H278.7z M278.6,255.9h2.6v2.4h-2.6V255.9z"/>
			<path class="st0" d="M283.7,267.1v-11.1h2.6v11c0,0.8,0.5,0.9,1.6,0.9v1.8c0,0-0.8,0.2-1.4,0.2
				C284.4,269.8,283.7,268.8,283.7,267.1"/>
			<path class="st0" d="M291.8,265.5c0,1.6,0.9,2.4,2.5,2.4c1,0,2-0.4,2.8-0.8l0.5,1.8c-0.8,0.4-2.1,1-3.7,1c-3,0-4.8-1.9-4.8-5.1
				c0-3,1.4-5.1,4.6-5.1c2.9,0,4.1,2.2,4.1,4.6v1.1H291.8z M293.6,261.6c-1.3,0-1.8,1.2-1.8,2.3h3.6
				C295.3,262.7,294.9,261.6,293.6,261.6"/>
			<path class="st0" d="M311.4,4H9.1H4.3v4.8l0,274.8v4.8h4.8h302.3h4.8v-4.8l0-274.8V4H311.4z M9.1,8.8h121.4l0,274.8H9.1L9.1,8.8z
				 M311.4,283.7h-176l0-274.8h176L311.4,283.7z"/>
		</g>
		<g>
			<g>
				<g>
					<path class="st0" d="M73.6,46.5c0.3-0.2,0.8-0.7,0.4-1.6c-0.2-0.4-0.8-0.5-0.5-0.5c3.1-0.7,4.8-5.3,4.7-7
						c1.6,1.5,5.2,1.9,7.8-0.3c1.7-1.6,2.5-5.9-0.4-8c-1.5-1.1-4.1-1.2-5.7,0.1c-0.5-0.9-1.4-1.5-2.4-1.5c0-0.3,0-2.3-1.2-3.7
						c-1.6-1.7-5.9-1.8-7.5,0c-3.1-0.8-7.2,0.7-7,5.6c-2.2-0.9-3.5-0.9-4.6-0.8c-1.1,0.1-2.6,1.1-3.1,1.8c-0.2,0.3-0.5,0.7-0.7,1.1
						c-0.4,0.7-0.6,1.6-0.5,2.7c0.2,1.7,1,3.2,2.3,3.9c1.7,1,4,0.8,4.8,0.7c0.6-0.1,1.3-0.4,1.9-1.1c0.2-0.2,0.4-0.5,0.6-0.5
						c0,0.4-0.2,2.8,2.5,3.9c0,0.1,0,0.2,0.1,0.4c0.8,3.2,3,2.8,3,3.1c-1,0.6-0.6,1.4-0.3,1.9c1.5-0.5,2.6-0.5,2.9-0.5
						S72.2,46,73.6,46.5z"/>
					<g>
						<polygon class="st1" points="70.4,49.8 68.4,56.2 61.4,56.2 61.5,56.2 67.1,60.3 65,66.7 70.4,62.6 75.8,66.7 73.6,60.3 
							79.3,56.2 79.3,56.2 72.3,56.2 						"/>
						<path class="st0" d="M81,56.3c0-3.2,2.2-5.8,2.2-5.8c0.2-0.3,0.3-0.5,0.2-0.7c0-0.3-0.3-0.5-0.3-0.5c-0.6-0.4-2-1.3-2-1.3
							L81,47.9h-0.1c-0.2,0-0.3,0.1-0.5,0.2C80,48.4,79.3,49,78,49c-0.2,0-0.5,0-0.7-0.1c-0.7-0.1-1.8-0.7-1.8-0.7
							c-0.4-0.2-0.8-0.4-1-0.5l-0.1,0C72.7,47,71.2,47,70.7,47c-0.4,0-2,0.1-3.8,0.8l-0.1,0c-0.1,0-0.3,0.1-0.5,0.2l-1.1,0.5
							c-0.4,0.2-0.8,0.3-1.2,0.4c-0.2,0-0.5,0.1-0.7,0.1c-1.3,0-2-0.6-2.4-0.9c-0.2-0.1-0.3-0.2-0.5-0.2l-0.1,0l-0.1,0
							c0,0-1.4,0.9-2,1.3c-0.1,0-0.3,0.2-0.4,0.5c0,0.2,0,0.4,0.2,0.7c0.1,0.1,2.2,2.6,2.2,5.8c0.1,0.4,0.2,2.3-1.4,5.2
							c-0.1,0.1-1.9,3.5,0.1,6.4c0,0,1.5,2.8,5.9,2.8c0.4,0,3.6,0.1,4.7,2.1c0,0.1,0.6,0.9,0.8,1.3l0.3,0.5l0.2-0.5
							c0.2-0.4,0.7-1.2,0.8-1.3c1.1-2.1,4.3-2.1,4.7-2.1c4.3,0,5.9-2.7,5.9-2.7c2.1-3,0.1-6.5,0.1-6.5C80.8,58.6,81,56.7,81,56.3z
							 M79.3,56.2l-5.7,4.1l2.2,6.4l-5.4-4.1L65,66.7l2.2-6.4l-5.7-4.1l0,0h7l2-6.5l2,6.5L79.3,56.2L79.3,56.2z"/>
						<g>
							<path class="st1" d="M51.4,87.5c3.1,3.2,7.6,1.4,7.6,1.4c0.7-0.1,1.1-2.3,1.3-4c-2.7-0.3-5.3-0.8-7.8-1.5
								C51.7,85.5,51.4,87.5,51.4,87.5z"/>
							<path class="st1" d="M50.6,74.1c-0.1-0.1-0.2-0.2-0.3-0.2c-0.4-0.1-0.7,0.3-1.1,0.2c-0.4-0.1-3.5-2.5-3.8-2.7
								c-0.7-0.5-1.8-1.1-2.3-1.8c-0.3-0.5-0.1-1.1-0.1-1.7c0-0.4-0.6-1.4-1.4-1.7c-0.2,1-1.5,4.5-5.8,5.4c-0.6,2.3,0.3,6.8,0.9,7.3
								c0.4,0.1,0.8,0.3,1.1,0.5c0-0.9,0.3-1.5,0.3-1.5c1.2-2.4,4-1.7,4-1.7c1,0.3,1.2,1.2,1.2,1.2c0.4,1.9-1.2,2.1-1.2,2.1
								c-1.1,0.1-1.2-0.9-1.2-0.9c-0.1-0.9,1.1-0.9,1.1-0.9c-1.1-1.9-4.5,1.2-2.3,3.9c0.2,0.3,0.4,0.1,0.4,0.1
								c6.7-3.3,7.8-4.7,7.8-4.7c1.4-1.3,2.5-2,3.3-2.6C50.8,74.3,50.6,74.1,50.6,74.1z"/>
							<path class="st1" d="M82.3,47.4c0.1,0.1,0.2,0.2,0.4,0.3C82.5,47.6,82.4,47.5,82.3,47.4z"/>
							<path class="st1" d="M84.4,49c-0.2-0.2-0.5-0.4-0.7-0.5C84,48.7,84.2,48.9,84.4,49L84.4,49z"/>
							<path class="st1" d="M82.9,47.9c0.2,0.2,0.4,0.3,0.7,0.5C83.4,48.2,83.1,48,82.9,47.9z"/>
							<path class="st1" d="M50.1,86.3c0.2-0.3,0.5-1.4,0.5-1.4c0.2-0.7,0.4-1.2,0.6-1.8c-0.7-0.2-1.4-0.5-2.1-0.7
								C49.2,84.6,50.1,86.3,50.1,86.3z"/>
							<path class="st1" d="M81.7,84.9c0.2,1.7,0.6,3.9,1.3,4c0,0,4.5,1.8,7.6-1.4c0,0-0.2-2-1-4C87,84.1,84.4,84.5,81.7,84.9z"/>
							<path class="st1" d="M91.3,84.9c0,0,0.3,1.2,0.5,1.4c0,0,0.9-1.7,1-3.9c-0.7,0.2-1.4,0.5-2.1,0.7
								C90.9,83.7,91.2,84.2,91.3,84.9z"/>
							<path class="st1" d="M58,78.8c-1.4,0-2.6,0.6-3.5,1.4c1.7,0.4,3.6,0.7,5.8,1.1C60,78.7,58,78.8,58,78.8z"/>
							<path class="st1" d="M88.5,79.9c1.3-0.3,2.6-0.7,3.5-1c-0.2-0.4-0.4-0.8-0.7-1.1c0,0-3.8-4.6-10.6-2c-0.1,0,0.3,1.1,2.2,1.6
								C83.1,77.4,86.1,77.6,88.5,79.9z"/>
							<path class="st1" d="M83.9,78.8c0,0-2,0-2.4,2.5c2.2-0.3,4.2-0.7,5.8-1C86.5,79.4,85.4,78.8,83.9,78.8z"/>
							<path class="st1" d="M64.8,77.2c-0.5-0.7-1.2-0.7-1.2-0.7c-1,0-1.2,2.3-1.5,5c2.1,0.2,4.4,0.4,6.9,0.4
								C68,79.8,65.7,78.4,64.8,77.2z"/>
							<path class="st1" d="M50.6,77.8c-0.3,0.4-0.5,0.7-0.7,1.1c0.9,0.3,2.2,0.6,3.5,1c2.4-2.3,5.4-2.5,5.6-2.6
								c1.9-0.4,2.3-1.5,2.2-1.6C54.4,73.2,50.6,77.8,50.6,77.8z"/>
							<path class="st1" d="M78.3,76.5c0,0-0.7,0-1.2,0.7c-0.9,1.2-3.2,2.6-4.2,4.8c2.5-0.1,4.8-0.2,6.9-0.4
								C79.5,78.8,79.3,76.5,78.3,76.5z"/>
							<path class="st0" d="M118.9,83.2c-0.7-0.9-2.6-0.4-2.6-0.4c1-3-1.8-3.8-1.8-3.8c-1-0.3-1.6-0.1-2.1,0.2c0,0,0,0,0,0
								c0,0,0,0,0,0c-0.1,0.1-0.1,0.1-0.2,0.2c-0.2,0.3-0.4,0.6-0.4,1c0,0.8,0.7,1.4,1.4,1.4c0.3,0,0.6-0.1,0.8-0.3
								c0.3-0.2,0.5-0.5,0.6-0.9c0.4,0.2,0.5,0.7,0.5,0.7c0.8,2.6-2.1,3.5-2.1,3.5c-6.4,1.9-10.3-1.4-10.3-1.4l1.1-0.6
								c0.4-0.2,0.7-0.2,1-0.2c0,0.1,0,0.1,0,0.2c0,0.7,0.6,1.2,1.3,1.2c0.7,0,1.3-0.6,1.3-1.2c0-0.5-0.3-0.8-0.3-0.8
								c-0.7-1.1-3.3-0.4-3.3-0.4c0.9-2.1,0.1-3.6,0.1-3.6c-1.2-2.4-4-1.7-4-1.7c-1,0.3-1.2,1.2-1.2,1.2c-0.4,1.9,1.2,2.1,1.2,2.1
								c1.2,0.1,1.2-0.9,1.2-0.9c0.1-0.9-1.1-0.9-1.1-0.9c1.1-1.9,4.5,1.2,2.2,3.9c-0.2,0.3-0.4,0.1-0.4,0.1c-4-2-5.9-3.2-6.9-4
								c-0.1-1.1-1-1.6-0.9-1.9c0.2-0.1,0.7,0.2,1-0.3c0.1-0.2,0.4-1.9,0.6-3.1c3.5,1.6,6.5,1.1,7.1,0.9c0.3-0.1,0.6-0.3,0.6-0.8
								c0.1-1.3-3.4-9.2-3.5-12c1.6,0.8,2.6-1.7,2.9-2.5c2.2,1,3,21.4,4.6,22.1c0.8,0.3,1.2-1,1.3-1.3c2.7-9.1,2.8-18,2.6-20.9
								c-0.3-4.7-0.6-8.8-1.8-12.6c-0.7-2.4-2-7.2-5.1-7.8c-1.5-0.3-2.6,1-2.5,2.3c0,1.1,0.8,1.6,0.4,2.6c-0.4,0.7-0.8,1.4-1,2.2
								c-0.2,0.8,0.5,1.1,0.3,1.9c-1-0.1-1.5,0.7-3,0.3c1-0.5,1-3.3-0.2-3.8C98.2,43,98,43,98,42.8c0,0,0.4-0.4,0.6-0.8
								c0.7-1.5,0.7-2.7,0.1-3.7c0.5,0,1-0.9,1.1-1.6l0,0c0,0,0,0,0-0.1v0c0-0.2,0-0.9,0.3-1.5c0.1-0.2,0-0.4-0.2-0.5
								c-0.2-0.1-0.4,0-0.5,0.2c-0.3,0.6-1,0.3-0.7-0.4c0.1-0.2,0-0.4-0.2-0.5c-0.2-0.1-0.4,0-0.5,0.2c-0.3,0.6-1,0.3-0.7-0.3
								c0.1-0.2,0-0.4-0.2-0.5c-0.2-0.1-0.4,0-0.5,0.2c-0.3,0.6-1,0.3-0.7-0.4c0.1-0.2,0-0.4-0.2-0.5c-0.2-0.1-0.4,0-0.5,0.2
								c-0.3,0.7-0.5,1-0.9,1.2c-0.7,0.1-0.5,0.9-0.4,1.4c-1.3-0.3-2.3,0.7-2.3,1.6h-0.1c-1.1,0-2.1,0.6-2,1.6
								c0,0.6,0.7,1.2,0.9,1.3c0.1,0-0.1-0.6,0.5-0.6c0.5,0,1.3,0.4,1.3,0.9c0.1,0.5-0.3,1.9,1.4,2.1c0,0,0,0.3,0,0.5
								c-0.6,0-0.8-0.1-1.4,0c-1.1,0.2-2.6,0.8-3,1.9c-0.1,0.2-0.1,0.6-0.1,0.8c0,0.2,0.2,0.5,0.2,0.8c0,0.1-0.3,0.4-0.3,0.5
								c-0.5,0.5-1.3,0.9-2.1,1c-0.8,0-1.6-0.5-2-0.9c-1.1-1.5,0.3-4.1,0.3-5c-0.1-2.5-3.3-1-4.6-0.4c-1.5,0.8-2.7,2.1-3.7,3.3
								c-0.6,0.7-1.2,1.6-1.5,2.3c-0.1,0.1-0.2,0.2-0.3,0.2c0.7,0.3,1.8,0.7,2.7,0.7c0,0,1.8,0.2,3.1-0.8c0,0,0.2-0.2,0.4-0.2
								c0.2,0,0.3,0.1,0.5,0.2c0,0,0.2,0.1,0.4,0.3c0.1,0.1,0.3,0.2,0.4,0.3c0.1,0.1,0.2,0.1,0.2,0.2c0.2,0.2,0.4,0.3,0.7,0.5
								c0,0,0.1,0.1,0.1,0.1c0.2,0.2,0.5,0.4,0.7,0.5l0,0c0.3,0.2,0.5,0.4,0.7,0.5l0,0c0,0,0.1,0.1,0.1,0.2c0,0.1,0,0.2-0.1,0.3
								c0,0-0.1,0.2-0.3,0.4c-0.4,0.5-1.1,1.6-1.7,2.9c0.6,1,1.6,2.3,3.1,2.3c1.2,0,1.6-0.6,1.8-1.3c0,0,0.1,0.1,0.1,0.1
								c0.1-0.1,0.8,3.3,1.6,4.3c-0.8,0.4-2,1.6-1.3,5c-0.7-0.5-1.8-1.4-2.4-2c-0.3-0.7-1-2.4-2.9-2.5c0.3,0.9,0.7,1.8,1.3,2.9
								c0,0,1.2,2.2,0.8,4.6c0.8-0.8,0.7-3.1,0.7-3.1c0,0,0.1-0.1,0.2-0.1c0.2,0,1,1.6,2.4,1.9c1.8,3.1,3.9,5.1,5.8,6.3
								c0,0.8,0.1,2.5-0.4,2.5c-1.6,0.3-3-0.7-4.4-0.6c-0.1-0.1-0.2-0.1-0.2-0.1c-5.9-2.8-13.7,3.3-15,4.4c-0.7,0.6-1.5-0.2-1.5-0.2
								c-0.5-0.6-1.1-0.9-1.7-0.8c-0.6-0.1-1.2,0.2-1.7,0.8c0,0-0.8,0.9-1.5,0.2c-1.2-1.1-8.3-6.6-14-4.7c0-0.3-0.8-0.5-1-0.6
								c-0.5-0.1-0.9-0.5-1.1-0.6C51,71.8,50,72,49.3,71.9c-0.3,0-0.7-0.2-0.9-0.3c-0.9-0.6-2-1.3-2.6-2.1c-0.1-0.1-0.3-0.4-0.4-0.5
								c-0.3-0.4-0.4-0.6-0.6-1.2c-0.3-1.1,0.2-2.4,0.3-3.5c0.1-0.9,0.1-0.9,0.2-1.8c3.7-1.3,5.2-4,6-5.5c0.1-0.1,0.3-0.6,0.3-0.6
								c0.2,0,0.3,0,0.5,0c1.5,0,2.4-0.8,4-0.6c0,0.1,0.2,0.8,1.3,1.2c0,1,0.1,1.9,0.5,2.7c0.1,0.1,0.2,0.3,0.3,0.4
								c0.7-1.7,0.9-3,0.9-3.8c0-0.1-0.1-0.2-0.1-0.3c-0.3-1.8-1.2-2.3-2-2.7c-0.4-0.2-0.8-0.3-1.2-0.5c-0.6-0.4-1.2-0.8-1.5-1.5
								c0,0,0.2-0.2,0.4-0.4c1-1.1,1.5-2.6,1.9-4.4c0.8-1.1,3-0.7,3.8-0.5c0.2,0,0.6,0.1,0.7,0.2c0.2,0.2,0.3,0.5,0.6,0.7
								c0.3,0.1,0.7,0,1.1,0c0.2,0.2,0.2,0.4,0.3,0.6c0,0,0.1,0.2,0.3,0.4c1,0,2.4-0.6,3-0.8c-0.1,0-0.1-0.1-0.2-0.1
								c-0.5-0.6-1.1-1.2-1.8-1.3c-0.8-0.1-1-0.9-1.8-1c-0.2-0.1-0.9-0.2-1.1-0.1c-1.7,0.2-2.9-0.4-4.5-0.5
								c-1.5-0.1-1.6,0.9-2.1,1.8c-0.2,0.3-0.4,0.7-0.7,0.9c-0.4,0.4-0.9,0.4-1.4,0.8l-0.2-0.6c-0.1-0.5-0.3-1.1-0.7-1.6
								c-0.8-1.3-1.8-2.3-3.6-2.7c-0.4-0.1-0.4-0.2-0.6-0.4c-0.3-0.2-0.1-0.5,0-0.5c0.5-0.3,1.4-0.2,2-0.5c1.5-0.7,0.9-1.9,0.4-2
								c-0.7-0.1-2.1-0.5-2.3-0.6c-0.4-0.2-1-1.3-1.6-1.6c-0.6-0.2-0.4-1.2-1-1.5c-0.3,0-0.6,0.1-1,0.3c0-0.2-0.2-1.4-0.8-1.8
								c-0.5-0.3-0.7,0.2-0.6,0.4c0,0.3,0.7,0.6,0.9,1.7c-0.1,0.1-0.2,0.1-0.4,0.2c-0.1-0.5-0.3-1.2-0.8-1.5
								c-0.5-0.3-0.7,0.2-0.6,0.4c0,0.2,0.6,0.6,0.8,1.5c-0.1,0.1-0.3,0.2-0.4,0.4c-1-0.3-1.2-0.9-1.5-1c-0.3-0.1-0.7,0.1-0.5,0.6
								c0.2,0.5,1,0.8,1.4,0.9c-0.1,0.1-0.2,0.2-0.3,0.3c-1.1-0.2-1.4-1-1.7-1c-0.3-0.1-0.7,0.1-0.5,0.6c0.3,0.7,1.6,1,1.7,1
								c-0.2,0.3-0.3,0.6-0.3,0.8c-0.9-0.1-2.5,0.4-2.2,1.4c0.3,0.2,1.3-0.6,2.3-0.2c0.6,1,1.7,1,1.9,1.2c0.4,0.3,0.4,0.8,0.6,1.3
								c0.3,0.9,0.9,1.5,1.4,2.3c0.5,0.8,1.1,1.7,1.7,2.4c0.1,0.2,0.1,0.4,0.1,0.7c-0.7,1-2.6,2.3-3.4,3c-0.8,0.8-8.5,6.6-9.4,9.1
								c-0.2,0.6-0.3,1.3-0.3,2.1c-0.5,0.2-1.5,0.7-1.8,0.2c-0.6-0.8,0.6-1.4,0.3-2.2c-0.1-0.3-0.6-0.5-0.8-0.3
								c-1.9,1.4-0.9,3.8,0.3,4.3c1.3,0.5,1.5-0.9,2.5-0.3c0.2,0.1,2.7,2.3,2.3,4c0,0.1-0.1,0.3-0.2,0.4c-0.5,0.7-1.4,1.2-2,1.8
								c-1.3,0.8,1.2,5.8,1,8.4c-0.1,1,0.8,0.9,1.4,2.4c-0.6,0-1.2,0.2-1.5,0.6c0,0-0.3,0.3-0.3,0.8c0,0.7,0.6,1.2,1.3,1.2
								c0.7,0,1.3-0.6,1.3-1.2c0-0.1,0-0.1,0-0.2c0.3,0,0.6,0,1,0.2l1.1,0.6c0,0-3.9,3.3-10.3,1.4c0,0-2.9-0.9-2.1-3.5
								c0,0,0.1-0.4,0.5-0.7c0.1,0.3,0.3,0.7,0.6,0.9c0.2,0.2,0.5,0.3,0.8,0.3c0.8,0,1.4-0.6,1.4-1.4c0-0.4-0.1-0.7-0.4-1
								c-0.1-0.1-0.1-0.1-0.2-0.2c0,0,0,0,0,0c0,0,0,0,0,0c-0.4-0.3-1.1-0.5-2.1-0.2c0,0-2.8,0.8-1.8,3.8c0,0-1.9-0.4-2.6,0.4
								c0,0-0.2,0.3-0.2,0.7v0v0c0,0.2,0.1,0.4,0.2,0.6c0.2,0.3,0.5,0.5,0.9,0.5c0.3,0,0.6-0.2,0.8-0.4c0,0,0,0,0,0
								c0.1-0.1,0.3-0.2,0.6,0.1c4.2,4.4,11.1,2.6,14.9-0.4c0,0,2.1-2.1,4.5-3.4c0.9,0.4,1.9,0.7,2.8,1c-0.1,1.4,0.2,3.3,1.7,5.6
								c0,0-1.1,2-2.9,0.9c0,0-1.3-1-0.2-2.3c0,0,0.8-0.6,1.1,0.2c-0.4,0-0.7,0.3-0.7,0.7c0,0.4,0.3,0.7,0.7,0.7
								c0.4,0,0.7-0.3,0.7-0.7c0-0.3,0.1-1.1-0.6-1.6c0,0-0.6-0.6-1.7-0.5c-1.6,0.2-2.5,3.6,0.7,5c0,0,2.5,1.1,3.8-0.7
								c0,0,0-0.3,0.5,0.2c2.6,2.6,8.5,1.8,10.8,0.1c0,0,0.6-0.4,1.2-0.7c0,1,0.8,1.8,1.8,1.8c1,0,1.8-0.8,1.8-1.8
								c0-0.9-0.7-1.6-1.5-1.8c0,0-1.2-0.3-2.9,0.7c0,0-1.8,1.1-1.7,1c0.6-1,1-2.2,1.2-3.6c2.6,0.3,5.2,0.5,7.9,0.5
								c0,0.8-0.1,1.8-0.4,2.5c0,0-1,0.4-1,1.1c0,0-0.1,0.5,0.7,1.2c0,0,0.6,0.7,0.8,1.2c0,0,0,0.7,1.1,0.7c0.1,0,0.1,0,0.2,0
								c0.1,0,0.1,0,0.2,0c1,0,1.1-0.7,1.1-0.7c0.2-0.5,0.8-1.2,0.8-1.2c0.9-0.7,0.7-1.2,0.7-1.2c0-0.7-1-1.1-1-1.1
								c-0.3-0.7-0.4-1.7-0.4-2.5c2.7-0.1,5.4-0.2,7.9-0.5c0.3,1.4,0.6,2.7,1.2,3.6c0.1,0.2-1.7-1-1.7-1c-1.7-1-2.9-0.7-2.9-0.7
								c-0.9,0.2-1.5,0.9-1.5,1.8c0,1,0.8,1.8,1.8,1.8c1,0,1.8-0.8,1.8-1.8c0.6,0.3,1.2,0.7,1.2,0.7c2.3,1.7,8.2,2.5,10.8-0.1
								c0.5-0.5,0.5-0.2,0.5-0.2c1.3,1.9,3.8,0.7,3.8,0.7c3.2-1.4,2.3-4.7,0.7-5c-1.1-0.2-1.7,0.5-1.7,0.5c-0.7,0.6-0.6,1.3-0.6,1.6
								c0,0.4,0.3,0.7,0.7,0.7c0.4,0,0.7-0.3,0.7-0.7c0-0.4-0.3-0.7-0.7-0.7c0.3-0.8,1.1-0.2,1.1-0.2c1.1,1.2-0.2,2.3-0.2,2.3
								c-1.8,1.1-2.9-0.9-2.9-0.9c1.5-2.3,1.8-4.2,1.7-5.6c1-0.3,1.9-0.6,2.9-1c2.4,1.3,4.5,3.4,4.5,3.4c3.8,2.9,10.7,4.8,14.9,0.4
								c0.3-0.4,0.6-0.2,0.6-0.1c0,0,0,0,0,0c0.2,0.2,0.5,0.4,0.8,0.4c0.4,0,0.7-0.2,0.9-0.5c0.1-0.2,0.2-0.4,0.2-0.6v0v0
								C119.1,83.4,118.9,83.2,118.9,83.2z M40.1,81.8c0,0-0.2,0.2-0.4-0.1c-2.2-2.7,1.2-5.8,2.3-3.9c0,0-1.3,0-1.1,0.9
								c0,0,0,0.9,1.2,0.9c0,0,1.6-0.2,1.2-2.1c0,0-0.2-0.9-1.2-1.2c0,0-2.8-0.8-4,1.7c0,0-0.2,0.6-0.3,1.5C37.3,79.3,37,79,36.6,79
								c-0.5-0.6-1.4-5-0.9-7.3c4.3-0.9,5.6-4.4,5.8-5.4c0.9,0.3,1.4,1.3,1.4,1.7c0.1,0.6-0.2,1.2,0.1,1.7c0.5,0.7,1.6,1.3,2.3,1.8
								c0.2,0.1,3.4,2.6,3.8,2.7c0.4,0.1,0.7-0.2,1.1-0.2c0.1,0,0.2,0.1,0.3,0.2c0,0,0.2,0.2,0.5,0.5c-0.8,0.5-1.9,1.3-3.3,2.6
								C47.8,77.1,46.8,78.5,40.1,81.8z M50.6,84.9c0,0-0.3,1.2-0.5,1.4c0,0-0.9-1.7-1-3.9c0.7,0.2,1.4,0.5,2.1,0.7
								C51,83.7,50.8,84.2,50.6,84.9z M59,88.9c0,0-4.5,1.8-7.6-1.4c0,0,0.2-2,1.1-4.1c2.5,0.6,5.1,1.1,7.8,1.5
								C60.1,86.6,59.7,88.8,59,88.9z M54.6,80.2c0.9-0.8,2-1.4,3.5-1.4c0,0,2,0,2.4,2.5C58.2,80.9,56.2,80.6,54.6,80.2z M59,77.4
								c-0.2,0.1-3.2,0.2-5.6,2.6c-1.3-0.3-2.6-0.7-3.5-1c0.2-0.4,0.4-0.8,0.7-1.1c0,0,3.8-4.6,10.6-2C61.3,75.8,60.9,76.9,59,77.4z
								 M62.1,81.5c0.3-2.7,0.5-5,1.5-5c0,0,0.7,0,1.2,0.7c0.9,1.2,3.2,2.6,4.2,4.8C66.6,81.9,64.2,81.7,62.1,81.5z M72.9,81.9
								c1.1-2.2,3.4-3.6,4.2-4.8c0.5-0.7,1.2-0.7,1.2-0.7c1,0,1.2,2.3,1.5,5C77.7,81.7,75.4,81.9,72.9,81.9z M80.7,75.8
								c6.8-2.6,10.6,2,10.6,2c0.3,0.4,0.5,0.8,0.7,1.1c-0.9,0.3-2.2,0.6-3.5,1c-2.4-2.3-5.4-2.5-5.6-2.6
								C81,76.9,80.6,75.8,80.7,75.8z M83.9,78.8c1.4,0,2.6,0.6,3.5,1.4c-1.7,0.4-3.7,0.7-5.8,1C81.9,78.7,83.9,78.8,83.9,78.8z
								 M82.9,88.9c-0.7-0.1-1.1-2.3-1.3-4c2.7-0.3,5.3-0.8,7.8-1.5c0.8,2.1,1,4,1,4C87.4,90.6,82.9,88.9,82.9,88.9z M91.8,86.3
								c-0.2-0.3-0.5-1.4-0.5-1.4c-0.2-0.7-0.4-1.2-0.6-1.8c0.7-0.2,1.4-0.4,2.1-0.7C92.8,84.6,91.8,86.3,91.8,86.3z"/>
						</g>
					</g>
				</g>
			</g>
		</g>
	</g>
	<g>
		<path class="st0" d="M150.7,37.8c-1.8,0-3.4-0.6-4.4-1.5l1-2.1c0.8,0.7,2.2,1.3,3.5,1.3c1.3,0,2.1-0.8,2.1-1.8
			c0-2.9-6.3-1.5-6.3-6.3c0-2.1,1.6-3.8,4.8-3.8c1.6,0,3,0.3,4.1,0.9l-0.9,2.1c-0.7-0.4-2-0.7-3.2-0.7c-1.2,0-2,0.4-2,1.4
			c0,2.4,6.3,1.5,6.3,6.1C155.6,35.8,153.8,37.8,150.7,37.8z"/>
		<path class="st0" d="M164.6,37.6l-0.4-1.2c-0.5,0.6-1.5,1.4-3.1,1.4c-2.5,0-3.6-1.4-3.6-4.1v-6h2.6v6c0,1.5,0.5,2.1,1.7,2.1
			c0.7,0,1.3-0.3,1.8-0.6v-7.5h2.7v9.9H164.6z"/>
		<path class="st0" d="M171.2,38.5v3h-2.7V27.7h2.3l0.2,1.1c0.4-0.6,1.5-1.3,2.6-1.3c2.3,0,4,1.7,4,5.1c0,3.4-2,5.2-4.3,5.2
			c-1.1,0-1.8-0.4-2.4-1.2C170.9,36.7,171.2,37.8,171.2,38.5z M171.2,34.9c0.4,0.6,1,1,1.7,1c1.2,0,2-0.8,2-3.2
			c0-2.4-0.7-3.2-1.9-3.2c-0.7,0-1.4,0.4-1.8,0.8V34.9z"/>
		<path class="st0" d="M181.9,33.4c0,1.6,0.9,2.4,2.5,2.4c1,0,2-0.4,2.9-0.8l0.5,1.9c-0.8,0.4-2.2,1-3.7,1c-3.1,0-4.9-1.9-4.9-5.2
			c0-3.1,1.5-5.1,4.6-5.1c3,0,4.2,2.2,4.2,4.7v1.2H181.9z M183.7,29.5c-1.3,0-1.9,1.2-1.9,2.4h3.6C185.5,30.5,185.1,29.5,183.7,29.5
			z"/>
		<path class="st0" d="M195.6,29.9c-0.3-0.1-0.8-0.2-1.2-0.2c-0.7,0-1.3,0.3-1.8,0.7v7.2H190v-9.9h1.8l0.3,1.3h0.1
			c0.3-0.7,1.2-1.5,2.4-1.5c0.5,0,0.9,0.1,1.2,0.1L195.6,29.9z"/>
		<path class="st0" d="M198,37.6v-8l-1.2-0.2v-1.7h3.8v9.9H198z M198,23.7h2.7v2.4H198V23.7z"/>
		<path class="st0" d="M209.2,37.6v-5.9c0-1.5-0.6-2.2-1.8-2.2c-0.7,0-1.3,0.3-1.7,0.6v7.5h-2.6v-9.9h1.8l0.4,1.1
			c0.6-0.7,1.7-1.3,3.1-1.3c2.5,0,3.5,1.5,3.5,4v6.1H209.2z"/>
		<path class="st0" d="M217.7,37.8c-1.8,0-2.9-0.8-2.9-3.3v-4.9h-1.5v-1.9h1.5V26l2.6-0.8v2.6h2.6v1.9h-2.6v4.9
			c0,0.7,0.3,1.1,1.1,1.1c0.5,0,1.1-0.2,1.5-0.4l0.4,1.9C219.8,37.5,218.8,37.8,217.7,37.8z"/>
		<path class="st0" d="M223.9,33.4c0,1.6,0.9,2.4,2.5,2.4c1,0,2-0.4,2.9-0.8l0.5,1.9c-0.8,0.4-2.2,1-3.7,1c-3.1,0-4.9-1.9-4.9-5.2
			c0-3.1,1.5-5.1,4.6-5.1c3,0,4.2,2.2,4.2,4.7v1.2H223.9z M225.7,29.5c-1.3,0-1.9,1.2-1.9,2.4h3.6C227.5,30.5,227.1,29.5,225.7,29.5
			z"/>
		<path class="st0" d="M238.2,37.6v-5.9c0-1.5-0.6-2.2-1.8-2.2c-0.7,0-1.3,0.3-1.7,0.6v7.5H232v-9.9h1.8l0.4,1.1
			c0.6-0.7,1.7-1.3,3.1-1.3c2.5,0,3.5,1.5,3.5,4v6.1H238.2z"/>
		<path class="st0" d="M249.4,28.5c-0.2-0.6-0.2-1.1-0.2-1.8v-3h2.6v13.9h-2.1l-0.3-1.1c-0.4,0.6-1.4,1.3-2.6,1.3
			c-2.2,0-4-1.6-4-5.2c0-3.3,1.9-5.2,4.3-5.2C248,27.5,248.9,27.9,249.4,28.5z M249.2,30c-0.4-0.2-1-0.5-1.8-0.5c-1.3,0-2,0.8-2,3.2
			c0,2.4,0.7,3.3,2,3.3c0.7,0,1.3-0.3,1.8-0.8V30z"/>
		<path class="st0" d="M256.5,33.4c0,1.6,0.9,2.4,2.5,2.4c1,0,2-0.4,2.9-0.8l0.5,1.9c-0.8,0.4-2.2,1-3.7,1c-3.1,0-4.9-1.9-4.9-5.2
			c0-3.1,1.5-5.1,4.6-5.1c3,0,4.2,2.2,4.2,4.7v1.2H256.5z M258.3,29.5c-1.3,0-1.9,1.2-1.9,2.4h3.6C260.1,30.5,259.7,29.5,258.3,29.5
			z"/>
		<path class="st0" d="M270.8,37.6v-5.9c0-1.5-0.6-2.2-1.8-2.2c-0.7,0-1.3,0.3-1.7,0.6v7.5h-2.6v-9.9h1.8l0.4,1.1
			c0.6-0.7,1.7-1.3,3.1-1.3c2.5,0,3.5,1.5,3.5,4v6.1H270.8z"/>
		<path class="st0" d="M283.5,37c-0.6,0.3-1.9,0.9-3.4,0.9c-3,0-4.7-1.7-4.7-5.2c0-3.2,1.8-5.2,4.7-5.2c1.3,0,2.4,0.3,3.4,0.8
			l-0.7,1.8c-0.7-0.4-1.6-0.6-2.5-0.6c-1.4,0-2.2,0.9-2.2,3.2c0,2.2,0.8,3.2,2.3,3.2c1,0,2-0.4,2.7-0.7L283.5,37z"/>
		<path class="st0" d="M286.1,37.6v-8l-1.2-0.2v-1.7h3.8v9.9H286.1z M286,23.7h2.7v2.4H286V23.7z"/>
		<path class="st0" d="M297.2,37.6l-0.4-1.2c-0.5,0.7-1.5,1.4-2.9,1.4c-2,0-3.3-1.3-3.3-3.2c0-1.8,1.4-2.9,3.7-2.9h2.1v-0.5
			c0-1.3-0.7-1.7-1.7-1.7c-1.2,0-2.2,0.3-3,0.7l-0.7-1.9c1-0.4,2.3-0.8,3.9-0.8c2.8,0,4,1.3,4,3.8v6.3H297.2z M296.5,33.3h-1.6
			c-1.1,0-1.6,0.5-1.6,1.3c0,0.9,0.5,1.5,1.5,1.5c0.6,0,1.3-0.3,1.8-0.7V33.3z"/>
		<path class="st0" d="M153.1,52.7c-0.2-0.6-0.2-1.1-0.2-1.8v-3h2.6v13.9h-2.1l-0.3-1.1c-0.4,0.6-1.4,1.3-2.6,1.3
			c-2.2,0-4-1.6-4-5.2c0-3.3,1.9-5.2,4.3-5.2C151.7,51.8,152.5,52.1,153.1,52.7z M152.8,54.2c-0.4-0.2-1-0.5-1.8-0.5
			c-1.3,0-2,0.8-2,3.2c0,2.4,0.7,3.3,2,3.3c0.7,0,1.3-0.3,1.8-0.8V54.2z"/>
		<path class="st0" d="M160.1,57.6c0,1.6,0.9,2.4,2.5,2.4c1,0,2-0.4,2.9-0.8l0.5,1.9c-0.8,0.4-2.2,1-3.7,1c-3.1,0-4.9-1.9-4.9-5.2
			c0-3.1,1.5-5.1,4.6-5.1c3,0,4.2,2.2,4.2,4.7v1.2H160.1z M162,53.7c-1.3,0-1.9,1.2-1.9,2.4h3.6C163.7,54.8,163.4,53.7,162,53.7z"/>
		<path class="st0" d="M176.8,62.1c-1.8,0-3.4-0.6-4.4-1.5l1-2.1c0.8,0.7,2.2,1.3,3.5,1.3c1.3,0,2.1-0.8,2.1-1.8
			c0-2.9-6.3-1.5-6.3-6.3c0-2.1,1.6-3.8,4.8-3.8c1.6,0,3,0.3,4.1,0.9l-0.9,2.1c-0.7-0.4-2-0.7-3.2-0.7c-1.2,0-2,0.4-2,1.4
			c0,2.4,6.3,1.5,6.3,6.1C181.7,60.1,179.9,62.1,176.8,62.1z"/>
		<path class="st0" d="M186,57.6c0,1.6,0.9,2.4,2.5,2.4c1,0,2-0.4,2.9-0.8l0.5,1.9c-0.8,0.4-2.2,1-3.7,1c-3.1,0-4.9-1.9-4.9-5.2
			c0-3.1,1.5-5.1,4.6-5.1c3,0,4.2,2.2,4.2,4.7v1.2H186z M187.9,53.7c-1.3,0-1.9,1.2-1.9,2.4h3.6C189.6,54.8,189.2,53.7,187.9,53.7z"
			/>
		<path class="st0" d="M203.1,52l0,2c-0.5,0-1.2-0.1-1.9-0.3c0.4,0.4,0.9,0.9,1,1.6c0,2.4-2.4,3.4-4.1,3.4c-0.4,0-0.8-0.1-1.3-0.2
			c-0.3,0.1-0.5,0.3-0.5,0.5c0,1.1,6.3-0.2,6.3,3.5c0,2.3-2.2,3.6-4.7,3.6c-2.1,0-4.2-0.9-4.2-2.7c0-1.3,1-1.9,2.6-2.2
			c-1.2-0.1-2.5-0.5-2.5-1.7c0-0.8,0.8-1.4,1.9-1.5c-1-0.5-1.8-1.4-1.8-2.8c0-2.6,2.5-3.4,4.1-3.4C199.2,51.8,201.4,52,203.1,52z
			 M197.7,61.3c-0.9,0.1-1.5,0.6-1.5,1.5c0,0.9,0.8,1.5,1.9,1.5c1.2,0,2-0.6,2-1.6C200.1,61.8,199.3,61.4,197.7,61.3z M199.9,55.1
			c0-1.2-1-1.5-1.8-1.5c-0.8,0-1.8,0.3-1.8,1.5c0,1.3,1,1.6,1.8,1.6C198.9,56.7,199.9,56.4,199.9,55.1z"/>
		<path class="st0" d="M211.8,61.9l-0.4-1.2c-0.5,0.6-1.5,1.4-3.1,1.4c-2.5,0-3.6-1.4-3.6-4.1v-6h2.6v6c0,1.5,0.5,2.1,1.7,2.1
			c0.7,0,1.3-0.3,1.8-0.6V52h2.7v9.9H211.8z"/>
		<path class="st0" d="M221.3,54.2c-0.3-0.1-0.8-0.2-1.2-0.2c-0.7,0-1.3,0.3-1.8,0.7v7.2h-2.6V52h1.8l0.3,1.3h0.1
			c0.3-0.7,1.2-1.5,2.4-1.5c0.5,0,0.9,0.1,1.2,0.1L221.3,54.2z"/>
		<path class="st0" d="M223.7,61.9v-8l-1.2-0.2V52h3.8v9.9H223.7z M223.7,47.9h2.7v2.4h-2.7V47.9z"/>
		<path class="st0" d="M235.2,52.7c-0.2-0.6-0.2-1.1-0.2-1.8v-3h2.6v13.9h-2.1l-0.3-1.1c-0.4,0.6-1.4,1.3-2.6,1.3
			c-2.2,0-4-1.6-4-5.2c0-3.3,1.9-5.2,4.3-5.2C233.8,51.8,234.6,52.1,235.2,52.7z M234.9,54.2c-0.4-0.2-1-0.5-1.8-0.5
			c-1.3,0-2,0.8-2,3.2c0,2.4,0.7,3.3,2,3.3c0.7,0,1.3-0.3,1.8-0.8V54.2z"/>
		<path class="st0" d="M246.1,61.9l-0.4-1.2c-0.5,0.7-1.5,1.4-2.9,1.4c-2,0-3.3-1.3-3.3-3.2c0-1.8,1.4-2.9,3.7-2.9h2.1v-0.5
			c0-1.3-0.7-1.7-1.7-1.7c-1.2,0-2.2,0.3-3,0.7l-0.7-1.9c1-0.4,2.3-0.8,3.9-0.8c2.8,0,4,1.3,4,3.8v6.3H246.1z M245.3,57.6h-1.6
			c-1.1,0-1.6,0.5-1.6,1.3c0,0.9,0.5,1.5,1.5,1.5c0.6,0,1.3-0.3,1.8-0.7V57.6z"/>
		<path class="st0" d="M256.6,52.7c-0.2-0.6-0.2-1.1-0.2-1.8v-3h2.6v13.9h-2.1l-0.3-1.1c-0.4,0.6-1.4,1.3-2.6,1.3
			c-2.2,0-4-1.6-4-5.2c0-3.3,1.9-5.2,4.3-5.2C255.2,51.8,256,52.1,256.6,52.7z M256.3,54.2c-0.4-0.2-1-0.5-1.8-0.5
			c-1.3,0-2,0.8-2,3.2c0,2.4,0.7,3.3,2,3.3c0.7,0,1.3-0.3,1.8-0.8V54.2z"/>
		<path class="st0" d="M150.7,86.3c-1.8,0-3.4-0.6-4.4-1.5l1-2.1c0.8,0.7,2.2,1.3,3.5,1.3c1.3,0,2.1-0.8,2.1-1.8
			c0-2.9-6.3-1.5-6.3-6.3c0-2.1,1.6-3.8,4.8-3.8c1.6,0,3,0.3,4.1,0.9l-0.9,2.1c-0.7-0.4-2-0.7-3.2-0.7c-1.2,0-2,0.4-2,1.4
			c0,2.4,6.3,1.5,6.3,6.1C155.6,84.3,153.8,86.3,150.7,86.3z"/>
		<path class="st0" d="M166.6,81.2c0,3.4-1.7,5.2-4.6,5.2c-3,0-4.6-1.8-4.6-5.2c0-2.9,1.6-5.1,4.6-5.1
			C164.9,76,166.6,78.3,166.6,81.2z M163.9,81.2c0-2.4-0.7-3.2-1.9-3.2c-1.2,0-1.9,0.8-1.9,3.2c0,2.3,0.6,3.2,1.9,3.2
			C163.2,84.4,163.9,83.5,163.9,81.2z"/>
		<path class="st0" d="M176.4,85.5c-0.6,0.3-1.9,0.9-3.4,0.9c-3,0-4.7-1.7-4.7-5.2c0-3.2,1.8-5.2,4.7-5.2c1.3,0,2.4,0.3,3.4,0.8
			l-0.7,1.8c-0.7-0.4-1.6-0.6-2.5-0.6c-1.4,0-2.2,0.9-2.2,3.2c0,2.2,0.8,3.2,2.3,3.2c1,0,2-0.4,2.7-0.7L176.4,85.5z"/>
		<path class="st0" d="M179,86.1v-8l-1.2-0.2v-1.7h3.8v9.9H179z M178.9,72.2h2.7v2.4h-2.7V72.2z"/>
		<path class="st0" d="M190.1,86.1l-0.4-1.2c-0.5,0.7-1.5,1.4-2.9,1.4c-2,0-3.3-1.3-3.3-3.2c0-1.8,1.4-2.9,3.7-2.9h2.1v-0.5
			c0-1.3-0.7-1.7-1.7-1.7c-1.2,0-2.2,0.3-3,0.7l-0.7-1.9c1-0.4,2.3-0.8,3.9-0.8c2.8,0,4,1.3,4,3.8v6.3H190.1z M189.4,81.8h-1.6
			c-1.1,0-1.6,0.5-1.6,1.3c0,0.9,0.5,1.5,1.5,1.5c0.6,0,1.3-0.3,1.8-0.7V81.8z"/>
		<path class="st0" d="M194.3,83.5V72.2h2.6v11.2c0,0.8,0.5,0.9,1.6,0.9v1.9c0,0-0.8,0.2-1.5,0.2C195,86.3,194.3,85.3,194.3,83.5z"
			/>
	</g>
</g>
</svg>
