<?xml version="1.0" encoding="utf-8"?>
<!-- Generator: Adobe Illustrator 27.9.0, SVG Export Plug-In . SVG Version: 6.00 Build 0)  -->
<svg version="1.1" id="Capa_1" xmlns="http://www.w3.org/2000/svg" xmlns:xlink="http://www.w3.org/1999/xlink" x="0px" y="0px"
	 viewBox="0 0 857 295.1" style="enable-background:new 0 0 857 295.1;" xml:space="preserve">
<style type="text/css">
	.st0{fill:#0063AF;}
	.st1{fill:#E73439;}
	.st2{fill:#FFFFFF;}
	.st3{fill:none;}
	.st4{fill:#004677;}
</style>
<g>
	<g>
		<g>
			<g>
				<rect x="5.7" y="5.4" class="st0" width="127.7" height="283.1"/>
				<rect x="133.4" y="5.4" class="st1" width="184.1" height="283.1"/>
				<path class="st2" d="M158,273.5c-1.9,0.9-3.4,1.3-5.2,1.3c-4.1,0-6.1-2.9-6.1-7.3c0-4.2,2.1-7.1,6.4-7.1c2.1,0,3.5,0.5,4.6,1.2
					l-1.1,2c-0.8-0.5-1.9-0.9-3.4-0.9c-2.5,0-3.6,1.9-3.6,4.6c0,3.3,1.2,5.1,3.5,5.1c0.9,0,1.8-0.2,2.4-0.5v-2.5h-1.9l-0.1-2h4.5
					L158,273.5L158,273.5z"/>
				<path class="st2" d="M169.2,269.5c0,3.4-1.7,5.3-4.7,5.3s-4.7-1.8-4.7-5.3c0-3,1.6-5.2,4.7-5.2
					C167.5,264.3,169.2,266.5,169.2,269.5 M166.4,269.5c0-2.4-0.7-3.3-2-3.3s-1.9,0.9-1.9,3.3c0,2.3,0.6,3.3,1.9,3.3
					C165.8,272.8,166.4,271.9,166.4,269.5"/>
				<path class="st2" d="M173.7,265.5c0.5-0.6,1.5-1.2,2.7-1.2c2.4,0,4.1,1.7,4.1,5.2s-2.1,5.3-4.4,5.3c-1.4,0-2.3-0.6-2.9-1.4
					l-0.5,1.2h-1.4v-14.2h2.7v3.5L173.7,265.5z M173.9,271.7c0.4,0.6,1.1,1,1.8,1c1.2,0,2-0.9,2-3.3s-0.8-3.2-2-3.2
					c-0.7,0-1.4,0.4-1.9,0.8L173.9,271.7L173.9,271.7z"/>
				<path class="st2" d="M183.3,274.5v-8.1l-1.1-0.2v-1.7h3.8v10.1L183.3,274.5L183.3,274.5z M183.2,260.4h2.7v2.4h-2.7V260.4z"/>
				<path class="st2" d="M190.7,270.2c0,1.6,0.9,2.5,2.6,2.5c1,0,2.1-0.4,2.9-0.9l0.5,1.9c-0.8,0.4-2.2,1-3.8,1c-3.1,0-5-1.9-5-5.3
					c0-3.1,1.5-5.2,4.7-5.2c3,0,4.3,2.3,4.3,4.8v1.2H190.7z M192.5,266.2c-1.3,0-1.9,1.2-1.9,2.4h3.7
					C194.4,267.3,193.9,266.2,192.5,266.2"/>
				<path class="st2" d="M204.7,266.7c-0.3-0.1-0.8-0.2-1.3-0.2c-0.7,0-1.4,0.3-1.8,0.7v7.3h-2.7v-10.1h1.9c0.1,0.5,0.2,0.9,0.3,1.4
					h0.1c0.3-0.7,1.2-1.5,2.4-1.5c0.5,0,0.9,0.1,1.2,0.1C204.7,265.2,204.7,265.9,204.7,266.7"/>
				<path class="st2" d="M212.5,274.5v-6c0-1.5-0.6-2.2-1.8-2.2c-0.7,0-1.3,0.3-1.8,0.6v7.6h-2.7v-10.1h1.8l0.4,1.1
					c0.6-0.7,1.7-1.4,3.2-1.4c2.5,0,3.5,1.5,3.5,4v6.2h-2.6L212.5,274.5L212.5,274.5z"/>
				<path class="st2" d="M226.5,269.5c0,3.4-1.7,5.3-4.7,5.3s-4.7-1.8-4.7-5.3c0-3,1.6-5.2,4.7-5.2
					C224.8,264.3,226.5,266.5,226.5,269.5 M223.8,269.5c0-2.4-0.7-3.3-2-3.3c-1.2,0-1.9,0.9-1.9,3.3c0,2.3,0.6,3.3,1.9,3.3
					C223.1,272.8,223.8,271.9,223.8,269.5"/>
				<path class="st2" d="M239.5,265.2c-0.2-0.6-0.3-1.1-0.3-1.8v-3h2.7v14.2h-2.2l-0.3-1.1c-0.4,0.6-1.4,1.3-2.7,1.3
					c-2.3,0-4.1-1.6-4.1-5.2c0-3.3,1.9-5.2,4.3-5.2C238.1,264.3,239,264.6,239.5,265.2 M239.3,266.8c-0.4-0.2-1-0.5-1.8-0.5
					c-1.3,0-2.1,0.9-2.1,3.2c0,2.4,0.8,3.3,2,3.3c0.7,0,1.4-0.3,1.9-0.9L239.3,266.8L239.3,266.8z"/>
				<path class="st2" d="M246.7,270.2c0,1.6,0.9,2.5,2.6,2.5c1,0,2.1-0.4,2.9-0.9l0.5,1.9c-0.8,0.4-2.2,1-3.8,1c-3.1,0-5-1.9-5-5.3
					c0-3.1,1.5-5.2,4.7-5.2c3,0,4.2,2.3,4.2,4.8v1.2H246.7z M248.6,266.2c-1.3,0-1.9,1.2-1.9,2.4h3.7
					C250.4,267.3,250,266.2,248.6,266.2"/>
				<path class="st2" d="M265.2,274.7c-3.9,0-6-2.6-6-7.2c0-4.3,2.1-7.1,6-7.1c1.9,0,3.6,0.4,4.7,1.2l-1,2.1c-0.7-0.5-2-0.9-3.4-0.9
					c-2.3,0-3.4,1.7-3.4,4.7c0,3.2,1.1,4.9,3.4,4.9c1.4,0,2.7-0.6,3.7-1.3l0.9,2.2C268.6,274.2,267,274.7,265.2,274.7"/>
				<path class="st2" d="M271.8,274.5v-14.2h2.7v3.7c0,0.7-0.2,1.4-0.3,1.6c0.6-0.7,1.4-1.4,2.8-1.4c2.9,0,3.7,1.5,3.7,4v6.2H278v-6
					c0-0.3,0-0.5-0.1-0.6c-0.1-1.1-0.7-1.6-1.7-1.6c-0.7,0-1.3,0.3-1.8,0.6v7.6L271.8,274.5L271.8,274.5z"/>
				<path class="st2" d="M283.8,274.5v-8.1l-1.2-0.2v-1.7h3.8v10.1L283.8,274.5L283.8,274.5z M283.7,260.4h2.7v2.4h-2.7V260.4z"/>
				<path class="st2" d="M288.9,271.9v-11.5h2.6v11.4c0,0.8,0.5,1,1.6,1v1.9c0,0-0.8,0.2-1.5,0.2
					C289.6,274.7,288.9,273.6,288.9,271.9"/>
				<path class="st2" d="M297.2,270.2c0,1.6,0.9,2.5,2.6,2.5c1,0,2.1-0.4,2.9-0.9l0.5,1.9c-0.8,0.4-2.2,1-3.8,1c-3.1,0-5-1.9-5-5.3
					c0-3.1,1.5-5.2,4.7-5.2c3,0,4.2,2.3,4.2,4.8v1.2H297.2z M299.1,266.2c-1.3,0-1.9,1.2-1.9,2.4h3.7
					C300.9,267.3,300.5,266.2,299.1,266.2"/>
			</g>
			<g>
				<g>
					<g>
						<path class="st2" d="M72.2,44.3c0.3-0.2,0.9-0.7,0.4-1.7c-0.2-0.5-0.8-0.5-0.6-0.5c3.2-0.8,4.9-5.4,4.8-7.2
							c1.6,1.5,5.3,2,8-0.3c1.7-1.7,2.6-6-0.4-8.2c-1.5-1.1-4.2-1.2-5.9,0.1C78,25.6,77,25,76.1,25c0-0.3,0-2.4-1.2-3.8
							c-1.6-1.7-6.1-1.9-7.7,0c-3.2-0.8-7.4,0.7-7.2,5.7c-2.3-0.9-3.6-0.9-4.8-0.8c-1.1,0.1-2.6,1.1-3.2,1.8
							c-0.2,0.3-0.5,0.7-0.7,1.1c-0.4,0.7-0.7,1.7-0.5,2.7c0.2,1.8,1.1,3.3,2.4,4c1.8,1,4.1,0.9,4.9,0.7c0.6-0.1,1.3-0.4,2-1.1
							c0.2-0.2,0.4-0.6,0.7-0.6c0,0.5-0.2,2.9,2.5,4c0,0.1,0.1,0.2,0.1,0.4c0.9,3.3,3.1,2.9,3.1,3.2c-1,0.6-0.6,1.5-0.3,1.9
							c1.5-0.5,2.6-0.5,3-0.5C69.6,43.8,70.7,43.8,72.2,44.3z"/>
						<g>
							<polygon class="st3" points="68.8,47.6 66.8,54.3 59.6,54.3 59.6,54.3 65.5,58.5 63.2,65.1 68.8,60.9 74.5,65.1 72.2,58.5 
								78.1,54.3 78.1,54.3 70.9,54.3 							"/>
							<path class="st2" d="M79.8,54.4c0-3.3,2.3-5.9,2.3-6c0.2-0.3,0.3-0.5,0.3-0.7c0-0.3-0.3-0.5-0.3-0.5
								c-0.6-0.4-2.1-1.3-2.1-1.3l-0.1-0.1h-0.1c-0.2,0-0.3,0.1-0.5,0.2c-0.4,0.3-1.1,0.9-2.4,0.9c-0.2,0-0.5,0-0.7-0.1
								c-0.7-0.1-1.8-0.7-1.8-0.7c-0.4-0.2-0.8-0.4-1-0.5h-0.1c-1.9-0.8-3.5-0.8-3.9-0.8s-2,0.1-3.9,0.8h-0.1
								c-0.1,0-0.3,0.1-0.5,0.2l-1.1,0.5c-0.4,0.2-0.9,0.4-1.2,0.4c-0.2,0-0.5,0.1-0.7,0.1c-1.3,0-2-0.6-2.5-0.9
								c-0.2-0.1-0.3-0.2-0.5-0.2h-0.1h-0.1c0,0-1.5,0.9-2.1,1.3c-0.1,0-0.3,0.2-0.4,0.6c0,0.2,0,0.4,0.3,0.7c0.1,0.1,2.3,2.7,2.3,6
								c0.1,0.4,0.2,2.4-1.5,5.4c-0.1,0.2-2,3.6,0.1,6.6c0,0,1.6,2.9,6.1,2.9c0.4,0,3.7,0.1,4.9,2.2c0,0.1,0.6,0.9,0.8,1.4l0.3,0.5
								l0.3-0.5c0.2-0.4,0.7-1.3,0.8-1.4c1.1-2.1,4.5-2.2,4.8-2.2c4.5,0,6.1-2.8,6.1-2.8c2.1-3.1,0.1-6.7,0.1-6.7
								C79.6,56.8,79.8,54.8,79.8,54.4z M78.1,54.3l-5.8,4.2l2.2,6.6l-5.6-4.3l-5.6,4.3l2.2-6.6l-5.8-4.2l0,0h7.2l2-6.7l2,6.7H78.1
								L78.1,54.3z"/>
							<g>
								<path class="st3" d="M49.3,86.6c3.2,3.3,7.8,1.5,7.8,1.5c0.7-0.1,1.1-2.4,1.3-4.1c-2.8-0.4-5.4-0.8-8-1.5
									C49.5,84.5,49.3,86.6,49.3,86.6z"/>
								<path class="st3" d="M48.5,72.7c-0.1-0.1-0.2-0.2-0.4-0.2c-0.4-0.1-0.7,0.3-1.2,0.2c-0.4-0.1-3.7-2.6-3.9-2.7
									c-0.7-0.5-1.8-1.1-2.4-1.8c-0.4-0.5-0.1-1.1-0.1-1.7c0-0.4-0.6-1.5-1.5-1.8c-0.2,1-1.6,4.7-6,5.6c-0.6,2.4,0.3,7,0.9,7.6
									c0.4,0.1,0.8,0.3,1.1,0.5c0-0.9,0.3-1.5,0.3-1.5c1.2-2.5,4.1-1.7,4.1-1.7c1,0.3,1.2,1.2,1.2,1.2c0.4,2-1.3,2.2-1.3,2.2
									c-1.2,0.1-1.2-0.9-1.2-0.9c-0.1-0.9,1.2-1,1.2-1c-1.1-1.9-4.6,1.2-2.3,4.1c0.2,0.3,0.5,0.1,0.5,0.1c6.9-3.4,8-4.9,8-4.9
									c1.5-1.3,2.6-2.1,3.4-2.7C48.7,73,48.5,72.7,48.5,72.7z"/>
								<path class="st3" d="M81.1,45.2c0.1,0.1,0.3,0.2,0.4,0.3C81.4,45.4,81.2,45.3,81.1,45.2z"/>
								<path class="st3" d="M83.3,46.9c-0.2-0.2-0.5-0.4-0.7-0.6C82.9,46.5,83.1,46.7,83.3,46.9L83.3,46.9z"/>
								<path class="st3" d="M81.8,45.7c0.2,0.2,0.4,0.3,0.7,0.5C82.2,46.1,82,45.9,81.8,45.7z"/>
								<path class="st3" d="M47.9,85.4c0.2-0.3,0.5-1.5,0.5-1.5c0.2-0.7,0.4-1.2,0.7-1.8c-0.8-0.2-1.5-0.5-2.2-0.7
									C47,83.6,47.9,85.4,47.9,85.4z"/>
								<path class="st3" d="M80.5,83.9c0.2,1.8,0.6,4,1.3,4.1c0,0,4.6,1.8,7.8-1.5c0,0-0.2-2-1.1-4.2C85.9,83,83.3,83.5,80.5,83.9z
									"/>
								<path class="st3" d="M90.5,83.9c0,0,0.3,1.2,0.5,1.5c0,0,1-1.7,1-4c-0.7,0.2-1.5,0.5-2.2,0.7C90,82.7,90.3,83.2,90.5,83.9z"
									/>
								<path class="st3" d="M56.1,77.6c-1.5,0-2.7,0.6-3.6,1.5c1.7,0.4,3.8,0.8,6,1.1C58.2,77.5,56.1,77.6,56.1,77.6z"/>
								<path class="st3" d="M87.6,78.8c1.4-0.3,2.6-0.7,3.6-1c-0.2-0.4-0.4-0.8-0.7-1.2c0,0-3.9-4.7-10.9-2.1
									c-0.1,0,0.3,1.2,2.2,1.6C82,76.2,85,76.4,87.6,78.8z"/>
								<path class="st3" d="M82.8,77.6c0,0-2.1,0-2.4,2.6c2.2-0.3,4.3-0.7,6-1.1C85.5,78.2,84.3,77.6,82.8,77.6z"/>
								<path class="st3" d="M63.1,75.9c-0.5-0.7-1.2-0.7-1.2-0.7c-1,0-1.2,2.4-1.5,5.1c2.2,0.2,4.5,0.4,7.1,0.5
									C66.4,78.6,64,77.2,63.1,75.9z"/>
								<path class="st3" d="M48.4,76.6c-0.3,0.4-0.5,0.8-0.7,1.2c1,0.3,2.2,0.7,3.6,1c2.5-2.4,5.5-2.6,5.8-2.6
									c1.9-0.4,2.4-1.6,2.2-1.6C52.4,71.8,48.4,76.6,48.4,76.6z"/>
								<path class="st3" d="M77,75.2c0,0-0.7,0-1.2,0.7c-0.9,1.2-3.3,2.7-4.3,4.9c2.5-0.1,4.9-0.2,7.1-0.5
									C78.3,77.6,78,75.2,77,75.2z"/>
								<path class="st2" d="M118.9,82.1c-0.7-0.9-2.7-0.4-2.7-0.4c1-3.1-1.8-3.9-1.8-3.9c-1-0.3-1.7-0.1-2.1,0.2l0,0l0,0
									c-0.1,0.1-0.1,0.1-0.2,0.2c-0.3,0.3-0.4,0.6-0.4,1c0,0.8,0.7,1.5,1.5,1.5c0.3,0,0.6-0.1,0.9-0.3c0.3-0.2,0.5-0.5,0.6-0.9
									c0.4,0.3,0.6,0.7,0.6,0.7c0.8,2.6-2.1,3.6-2.1,3.6c-6.6,2-10.6-1.4-10.6-1.4l1.1-0.6c0.4-0.2,0.8-0.2,1-0.2
									c0,0.1,0,0.1,0,0.2c0,0.7,0.6,1.3,1.3,1.3c0.7,0,1.3-0.6,1.3-1.3c0-0.5-0.3-0.8-0.3-0.8c-0.8-1.2-3.4-0.4-3.4-0.4
									c0.9-2.2,0.1-3.7,0.1-3.7c-1.2-2.5-4.1-1.7-4.1-1.7c-1,0.3-1.2,1.2-1.2,1.2c-0.4,2,1.3,2.2,1.3,2.2c1.2,0.1,1.2-0.9,1.2-0.9
									c0.2-0.9-1.2-1-1.2-1c1.1-1.9,4.6,1.2,2.3,4.1c-0.2,0.3-0.5,0.1-0.5,0.1c-4.1-2-6.1-3.3-7.1-4.1c-0.1-1.1-1.1-1.7-0.9-2
									c0.2-0.1,0.7,0.2,1.1-0.3c0.1-0.2,0.4-1.9,0.6-3.2c3.6,1.7,6.7,1.2,7.3,1c0.3-0.1,0.6-0.4,0.6-0.8c0.1-1.4-3.5-9.5-3.6-12.4
									c1.7,0.8,2.7-1.8,3-2.6c2.3,1,3,22.1,4.8,22.8c0.9,0.4,1.2-1.1,1.3-1.3c2.8-9.4,2.9-18.5,2.7-21.6c-0.3-4.8-0.7-9.1-1.8-13
									c-0.7-2.4-2.1-7.4-5.3-8.1c-1.5-0.3-2.6,1.1-2.6,2.3c0,1.1,0.8,1.6,0.4,2.7c-0.4,0.7-0.8,1.5-1,2.2
									c-0.2,0.8,0.5,1.1,0.3,1.9c-1-0.2-1.5,0.7-3.1,0.3c1-0.5,1.1-3.5-0.2-4c-0.2-0.1-0.4-0.1-0.4-0.3c0,0,0.4-0.4,0.6-0.9
									c0.7-1.5,0.7-2.8,0.1-3.8c0.5,0,1.1-0.9,1.2-1.7l0,0c0,0,0,0,0-0.1l0,0c0-0.2,0-0.9,0.3-1.5c0.1-0.2,0-0.4-0.2-0.5
									s-0.4,0-0.5,0.2c-0.3,0.7-1.1,0.3-0.7-0.4c0.1-0.2,0-0.4-0.2-0.5s-0.4,0-0.5,0.2c-0.3,0.6-1,0.3-0.7-0.4
									c0.1-0.2,0-0.4-0.2-0.5s-0.4,0-0.5,0.2c-0.3,0.7-1.1,0.3-0.8-0.4c0.1-0.2,0-0.5-0.2-0.5c-0.2-0.1-0.4,0-0.5,0.2
									c-0.3,0.7-0.6,1-0.9,1.3c-0.7,0.1-0.5,0.9-0.4,1.5c-1.3-0.3-2.3,0.7-2.4,1.6H91c-1.1,0-2.1,0.6-2.1,1.6c0,0.6,0.7,1.3,1,1.3
									c0.1,0-0.1-0.6,0.5-0.6c0.5,0,1.3,0.4,1.4,0.9c0.1,0.6-0.3,1.9,1.4,2.1c0,0,0,0.3,0,0.6c-0.6,0-0.8-0.1-1.4,0
									c-1.1,0.2-2.7,0.8-3.1,1.9c-0.1,0.2-0.1,0.6-0.1,0.9c0,0.2,0.2,0.5,0.2,0.8c0,0.1-0.3,0.4-0.4,0.5c-0.5,0.5-1.3,1-2.1,1
									c-0.9,0-1.7-0.5-2-1c-1.1-1.5,0.3-4.2,0.3-5.2c-0.1-2.6-3.4-1.1-4.7-0.4c-1.6,0.8-2.8,2.1-3.9,3.5c-0.6,0.7-1.2,1.6-1.5,2.4
									c-0.1,0.1-0.2,0.2-0.3,0.2c0.7,0.3,1.9,0.7,2.8,0.8c0,0,1.8,0.2,3.1-0.8c0,0,0.2-0.2,0.5-0.2c0.2,0,0.4,0.1,0.5,0.2
									c0,0,0.2,0.2,0.4,0.3c0.1,0.1,0.3,0.2,0.4,0.3s0.2,0.1,0.2,0.2c0.2,0.2,0.5,0.4,0.7,0.5l0.1,0.1c0.3,0.2,0.5,0.4,0.7,0.6
									l0,0c0.3,0.2,0.5,0.4,0.7,0.5l0,0c0,0,0.1,0.1,0.1,0.2c0,0.1,0,0.2-0.1,0.3c0,0-0.1,0.2-0.4,0.4c-0.4,0.6-1.2,1.7-1.7,3
									c0.6,1.1,1.7,2.4,3.2,2.4c1.2,0,1.7-0.6,1.9-1.3l0.1,0.1c0.1-0.1,0.8,3.4,1.7,4.4c-0.8,0.4-2.1,1.7-1.4,5.2
									c-0.7-0.5-1.9-1.5-2.5-2.1c-0.4-0.7-1-2.4-3-2.6c0.3,0.9,0.7,1.9,1.3,3c0,0,1.2,2.3,0.8,4.8C85.1,64.3,85,62,85,62
									s0.1-0.1,0.2-0.1c0.2,0,1,1.6,2.4,2c1.9,3.2,4,5.2,6,6.5c0,0.8,0.1,2.6-0.4,2.6c-1.6,0.4-3.1-0.7-4.5-0.7
									c-0.1-0.1-0.2-0.1-0.2-0.1c-6.1-2.9-14.1,3.4-15.4,4.6c-0.7,0.6-1.5-0.2-1.5-0.2c-0.5-0.6-1.1-0.9-1.7-0.8
									c-0.6-0.1-1.2,0.2-1.7,0.8c0,0-0.8,0.9-1.5,0.2c-1.3-1.2-8.5-6.8-14.5-4.9c0-0.3-0.8-0.5-1-0.6c-0.5-0.1-0.9-0.5-1.2-0.7
									c-0.6-0.3-1.7-0.1-2.4-0.2c-0.3,0-0.7-0.2-0.9-0.3c-1-0.6-2-1.3-2.6-2.2c-0.1-0.1-0.3-0.5-0.4-0.5c-0.3-0.4-0.4-0.6-0.7-1.3
									c-0.3-1.2,0.2-2.4,0.4-3.6c0.1-0.9,0.1-0.9,0.2-1.9c3.8-1.3,5.3-4.1,6.2-5.6c0.1-0.1,0.3-0.6,0.3-0.6c0.2,0,0.3,0,0.5,0
									c1.5,0,2.5-0.8,4.2-0.6c0,0.1,0.2,0.8,1.3,1.2c0,1.1,0.1,2,0.5,2.8c0.1,0.1,0.2,0.3,0.3,0.4c0.7-1.7,0.9-3.1,0.9-3.9
									c-0.1-0.1-0.1-0.2-0.1-0.3c-0.4-1.8-1.2-2.3-2-2.8c-0.4-0.2-0.8-0.3-1.2-0.6c-0.6-0.4-1.2-0.8-1.6-1.6c0,0,0.2-0.2,0.4-0.4
									c1.1-1.1,1.6-2.7,2-4.5c0.8-1.1,3-0.7,3.9-0.5c0.2,0,0.6,0.1,0.8,0.2c0.2,0.2,0.3,0.5,0.6,0.7c0.4,0.1,0.8,0,1.2,0
									c0.2,0.2,0.2,0.4,0.4,0.7c0,0,0.1,0.2,0.3,0.4c1,0,2.5-0.6,3-0.9c-0.1,0-0.1-0.1-0.2-0.1c-0.5-0.6-1.2-1.3-1.8-1.4
									c-0.8-0.1-1-0.9-1.8-1c-0.2-0.1-0.9-0.2-1.2-0.1c-1.8,0.2-3-0.4-4.7-0.6c-1.6-0.1-1.6,1-2.2,1.8c-0.2,0.3-0.5,0.7-0.7,1
									c-0.4,0.4-0.9,0.4-1.5,0.8l-0.2-0.7c-0.1-0.5-0.3-1.1-0.7-1.6c-0.9-1.3-1.8-2.4-3.7-2.8c-0.4-0.1-0.4-0.2-0.7-0.4
									s-0.1-0.5,0-0.6c0.5-0.3,1.5-0.2,2.1-0.5c1.5-0.7,1-2,0.4-2.1c-0.8-0.1-2.1-0.5-2.4-0.7c-0.4-0.2-1-1.4-1.6-1.7
									c-0.7-0.2-0.4-1.3-1-1.5c-0.3,0-0.7,0.1-1.1,0.3c0-0.2-0.2-1.5-0.9-1.9c-0.5-0.3-0.7,0.2-0.7,0.5s0.7,0.6,0.9,1.8
									c-0.1,0.1-0.2,0.1-0.4,0.2c-0.1-0.5-0.3-1.2-0.8-1.5s-0.7,0.2-0.7,0.5s0.7,0.6,0.9,1.6c-0.2,0.1-0.3,0.2-0.4,0.4
									c-1-0.3-1.3-1-1.5-1c-0.3-0.1-0.7,0.1-0.5,0.6s1,0.8,1.5,1c-0.1,0.1-0.2,0.2-0.3,0.3c-1.2-0.2-1.5-1-1.7-1.1
									c-0.3-0.1-0.8,0.1-0.5,0.6c0.3,0.7,1.7,1,1.8,1.1c-0.2,0.3-0.3,0.6-0.3,0.8c-0.9-0.1-2.5,0.4-2.2,1.5
									c0.3,0.2,1.4-0.7,2.4-0.2c0.7,1,1.7,1.1,1.9,1.3c0.4,0.3,0.4,0.8,0.6,1.3c0.3,0.9,0.9,1.6,1.4,2.4c0.6,0.9,1.2,1.8,1.7,2.5
									c0.1,0.2,0.1,0.4,0.1,0.7c-0.7,1.1-2.7,2.3-3.5,3.1s-8.7,6.8-9.7,9.4c-0.2,0.6-0.3,1.3-0.3,2.1c-0.5,0.3-1.5,0.7-1.9,0.2
									c-0.6-0.8,0.6-1.5,0.3-2.3c-0.1-0.3-0.6-0.5-0.9-0.3c-2,1.4-1,3.9,0.3,4.5c1.4,0.6,1.6-0.9,2.6-0.3c0.3,0.1,2.8,2.4,2.3,4.1
									c0,0.1-0.1,0.3-0.2,0.4c-0.5,0.7-1.5,1.2-2.1,1.8c-1.3,0.8,1.2,6,1,8.7c-0.1,1,0.8,0.9,1.4,2.5c-0.6,0-1.2,0.2-1.5,0.6
									c0,0-0.3,0.3-0.3,0.8c0,0.7,0.6,1.3,1.3,1.3s1.3-0.6,1.3-1.3c0-0.1,0-0.1,0-0.2c0.3,0,0.6,0.1,1,0.2l1.1,0.6
									c0,0-4,3.4-10.6,1.4c0,0-3-0.9-2.1-3.6c0,0,0.1-0.4,0.6-0.7c0.1,0.4,0.3,0.7,0.6,0.9c0.2,0.2,0.5,0.3,0.9,0.3
									c0.8,0,1.5-0.7,1.5-1.5c0-0.4-0.2-0.8-0.4-1c-0.1-0.1-0.1-0.1-0.2-0.2l0,0l0,0c-0.4-0.3-1.1-0.5-2.2-0.2
									c0,0-2.9,0.8-1.8,3.9c0,0-1.9-0.4-2.7,0.4c0,0-0.3,0.3-0.2,0.7l0,0l0,0c0,0.2,0.1,0.4,0.2,0.6c0.2,0.3,0.5,0.5,0.9,0.5
									s0.7-0.2,0.9-0.4l0,0c0.1-0.1,0.3-0.2,0.7,0.1c4.4,4.5,11.5,2.7,15.4-0.4c0,0,2.2-2.2,4.6-3.5c0.9,0.4,2,0.7,2.9,1.1
									c-0.1,1.4,0.2,3.4,1.8,5.8c0,0-1.1,2.1-3,0.9c0,0-1.4-1.1-0.2-2.4c0,0,0.8-0.7,1.1,0.2c-0.4,0-0.7,0.4-0.7,0.8
									s0.3,0.8,0.8,0.8c0.4,0,0.7-0.3,0.8-0.7c0-0.3,0.1-1.1-0.6-1.7c0,0-0.6-0.6-1.7-0.5c-1.7,0.3-2.6,3.7,0.7,5.1
									c0,0,2.6,1.2,3.9-0.7c0,0,0-0.3,0.5,0.2c2.7,2.6,8.8,1.9,11.2,0.1c0,0,0.6-0.4,1.3-0.7c0,1,0.9,1.8,1.9,1.8
									c1,0,1.9-0.9,1.9-1.9c0-0.9-0.7-1.7-1.6-1.9c0,0-1.2-0.4-3,0.7c0,0-1.9,1.2-1.8,1c0.6-1,1-2.3,1.3-3.7
									c2.6,0.3,5.4,0.5,8.2,0.5c0,0.8-0.1,1.8-0.5,2.6c0,0-1,0.4-1,1.1c0,0-0.1,0.5,0.8,1.2c0,0,0.6,0.7,0.8,1.3
									c0,0,0.1,0.8,1.1,0.8c0.1,0,0.1,0,0.2,0s0.1,0,0.2,0c1.1,0,1.1-0.8,1.1-0.8c0.2-0.6,0.8-1.3,0.8-1.3
									c0.9-0.7,0.8-1.2,0.8-1.2c0-0.7-1-1.1-1-1.1c-0.3-0.8-0.4-1.8-0.5-2.6c2.8-0.1,5.5-0.3,8.2-0.5c0.3,1.4,0.7,2.7,1.3,3.7
									c0.1,0.2-1.7-1-1.7-1c-1.8-1.1-3-0.7-3-0.7C74.7,86.3,74,87,74,88s0.8,1.9,1.9,1.9c1,0,1.9-0.8,1.9-1.8
									c0.7,0.3,1.3,0.7,1.3,0.7c2.4,1.8,8.5,2.6,11.2-0.1c0.5-0.5,0.5-0.2,0.5-0.2c1.3,1.9,3.9,0.7,3.9,0.7
									c3.3-1.4,2.3-4.9,0.7-5.1c-1.1-0.2-1.7,0.5-1.7,0.5C93,85.2,93,86,93.1,86.3c0,0.4,0.3,0.7,0.8,0.7c0.4,0,0.8-0.3,0.8-0.8
									c0-0.4-0.3-0.7-0.7-0.8c0.3-0.8,1.1-0.2,1.1-0.2c1.2,1.3-0.2,2.4-0.2,2.4c-1.9,1.1-3-0.9-3-0.9c1.6-2.3,1.9-4.4,1.8-5.8
									c1-0.4,2-0.7,2.9-1.1c2.4,1.3,4.6,3.5,4.6,3.5c3.9,3,11,4.9,15.4,0.4c0.3-0.4,0.6-0.2,0.7-0.1l0,0c0.2,0.3,0.5,0.4,0.9,0.4
									s0.7-0.2,0.9-0.5c0.1-0.2,0.2-0.5,0.2-0.6l0,0l0,0C119.1,82.4,118.9,82.1,118.9,82.1z M37.6,80.7c0,0-0.2,0.2-0.5-0.1
									c-2.3-2.8,1.2-6,2.3-4.1c0,0-1.3,0-1.2,1c0,0,0,1,1.2,0.9c0,0,1.7-0.2,1.3-2.2c0,0-0.2-0.9-1.2-1.2c0,0-2.9-0.8-4.1,1.7
									c0,0-0.3,0.6-0.3,1.5c-0.3-0.3-0.7-0.5-1.1-0.5c-0.5-0.6-1.5-5.2-0.9-7.6c4.4-0.9,5.8-4.6,6-5.6c0.9,0.3,1.4,1.3,1.5,1.8
									c0.1,0.6-0.2,1.2,0.1,1.7c0.5,0.7,1.7,1.4,2.4,1.8c0.2,0.2,3.5,2.7,3.9,2.7c0.5,0.1,0.7-0.2,1.2-0.2c0.1,0,0.2,0.1,0.4,0.2
									c0,0,0.2,0.2,0.6,0.5c-0.9,0.6-2,1.4-3.4,2.7C45.6,75.9,44.5,77.3,37.6,80.7z M48.4,83.9c0,0-0.3,1.2-0.5,1.5
									c0,0-1-1.7-1.1-4c0.7,0.2,1.5,0.5,2.2,0.7C48.9,82.6,48.6,83.2,48.4,83.9z M57.1,88c0,0-4.6,1.8-7.8-1.5c0,0,0.2-2,1.1-4.2
									c2.6,0.7,5.2,1.2,8,1.5C58.2,85.6,57.8,87.9,57.1,88z M52.5,79c0.9-0.9,2.1-1.4,3.6-1.5c0,0,2.1,0,2.4,2.6
									C56.3,79.8,54.3,79.4,52.5,79z M57.1,76.1c-0.3,0.1-3.3,0.3-5.8,2.6c-1.4-0.3-2.6-0.7-3.6-1c0.2-0.4,0.4-0.8,0.7-1.2
									c0,0,3.9-4.7,10.9-2.1C59.5,74.6,59.1,75.7,57.1,76.1z M60.4,80.4c0.3-2.8,0.5-5.2,1.5-5.1c0,0,0.7,0,1.2,0.7
									c0.9,1.2,3.3,2.7,4.3,4.9C64.9,80.8,62.5,80.6,60.4,80.4z M71.5,80.8c1.1-2.2,3.5-3.7,4.3-4.9c0.5-0.7,1.2-0.7,1.2-0.7
									c1,0,1.2,2.4,1.5,5.2C76.4,80.6,74,80.8,71.5,80.8z M79.5,74.5c7-2.7,10.9,2.1,10.9,2.1c0.3,0.4,0.5,0.8,0.7,1.2
									c-1,0.3-2.2,0.7-3.6,1c-2.5-2.4-5.5-2.6-5.8-2.6C79.8,75.7,79.4,74.6,79.5,74.5z M82.8,77.6c1.5,0,2.7,0.6,3.6,1.5
									c-1.7,0.4-3.8,0.8-6,1.1C80.7,77.5,82.8,77.6,82.8,77.6z M81.8,88c-0.7-0.1-1.1-2.4-1.3-4.1c2.8-0.4,5.4-0.8,8-1.5
									c0.9,2.1,1.1,4.2,1.1,4.2C86.4,89.8,81.8,88,81.8,88z M91,85.4c-0.2-0.3-0.5-1.5-0.5-1.5c-0.2-0.7-0.4-1.2-0.7-1.8
									c0.7-0.2,1.5-0.5,2.2-0.7C91.9,83.6,91,85.4,91,85.4z"/>
							</g>
						</g>
					</g>
				</g>
			</g>
		</g>
	</g>
	<g>
		<path class="st2" d="M152.1,35.9c-1.9,0-3.5-0.7-4.6-1.5l1-2.2c0.8,0.7,2.3,1.4,3.6,1.4s2.2-0.8,2.2-1.9c0-3-6.6-1.5-6.6-6.5
			c0-2.1,1.7-3.9,5-3.9c1.7,0,3.1,0.4,4.2,1l-0.9,2.2c-0.8-0.5-2-0.8-3.3-0.8s-2.1,0.4-2.1,1.5c0,2.5,6.6,1.6,6.6,6.4
			C157.2,33.8,155.4,35.9,152.1,35.9z"/>
		<path class="st2" d="M166.5,35.7l-0.4-1.3c-0.5,0.6-1.6,1.5-3.2,1.5c-2.6,0-3.7-1.4-3.7-4.3v-6.2h2.7v6.3c0,1.6,0.6,2.1,1.8,2.1
			c0.7,0,1.4-0.3,1.8-0.6v-7.8h2.8v10.3H166.5z"/>
		<path class="st2" d="M173.4,36.6v3.1h-2.8V25.4h2.4l0.2,1.1c0.5-0.7,1.6-1.3,2.7-1.3c2.4,0,4.1,1.7,4.1,5.3c0,3.5-2.1,5.4-4.5,5.4
			c-1.2,0-1.8-0.4-2.5-1.2C173,34.7,173.4,35.9,173.4,36.6z M173.4,32.9c0.4,0.6,1.1,1,1.8,1c1.2,0,2.1-0.9,2.1-3.4s-0.8-3.3-2-3.3
			c-0.7,0-1.4,0.4-1.9,0.8L173.4,32.9L173.4,32.9z"/>
		<path class="st2" d="M184.5,31.3c0,1.6,0.9,2.5,2.6,2.5c1,0,2.1-0.4,3-0.9l0.5,1.9c-0.9,0.5-2.3,1-3.9,1c-3.2,0-5.1-2-5.1-5.4
			c0-3.2,1.5-5.3,4.8-5.3c3.1,0,4.3,2.3,4.3,4.9v1.2h-6.2L184.5,31.3L184.5,31.3z M186.4,27.2c-1.4,0-1.9,1.2-1.9,2.5h3.8
			C188.2,28.4,187.8,27.2,186.4,27.2z"/>
		<path class="st2" d="M198.8,27.7c-0.3-0.1-0.8-0.2-1.3-0.2c-0.7,0-1.4,0.3-1.8,0.7v7.5H193V25.4h1.9l0.3,1.4h0.1
			c0.3-0.7,1.2-1.6,2.5-1.6c0.5,0,1,0.1,1.2,0.1L198.8,27.7z"/>
		<path class="st2" d="M201.3,35.7v-8.3l-1.2-0.3v-1.7h3.9v10.3H201.3z M201.2,21.2h2.8v2.5h-2.8V21.2z"/>
		<path class="st2" d="M212.9,35.7v-6.1c0-1.6-0.6-2.3-1.8-2.3c-0.7,0-1.3,0.3-1.8,0.6v7.8h-2.8V25.4h1.9l0.4,1.2
			c0.6-0.7,1.7-1.4,3.3-1.4c2.6,0,3.6,1.5,3.6,4.1v6.4H212.9z"/>
		<path class="st2" d="M221.7,35.9c-1.8,0-3-0.9-3-3.4v-5.1h-1.5v-2h1.5v-1.8l2.7-0.9v2.7h2.8v2h-2.8v5c0,0.7,0.4,1.2,1.1,1.2
			c0.6,0,1.2-0.2,1.6-0.4l0.4,2C223.9,35.6,222.8,35.9,221.7,35.9z"/>
		<path class="st2" d="M228.1,31.3c0,1.6,0.9,2.5,2.6,2.5c1,0,2.1-0.4,3-0.9l0.5,1.9c-0.9,0.5-2.3,1-3.9,1c-3.2,0-5.1-2-5.1-5.4
			c0-3.2,1.5-5.3,4.8-5.3c3.1,0,4.3,2.3,4.3,4.9v1.2h-6.2L228.1,31.3L228.1,31.3z M230,27.2c-1.4,0-1.9,1.2-1.9,2.5h3.8
			C231.9,28.4,231.5,27.2,230,27.2z"/>
		<path class="st2" d="M243,35.7v-6.1c0-1.6-0.6-2.3-1.8-2.3c-0.7,0-1.3,0.3-1.8,0.6v7.8h-2.8V25.4h1.9l0.4,1.2
			c0.6-0.7,1.7-1.4,3.3-1.4c2.6,0,3.6,1.5,3.6,4.1v6.4H243z"/>
		<path class="st2" d="M254.7,26.2c-0.2-0.6-0.3-1.1-0.3-1.9v-3.1h2.7v14.5h-2.2l-0.3-1.1c-0.4,0.6-1.4,1.3-2.7,1.3
			c-2.3,0-4.2-1.7-4.2-5.4c0-3.4,1.9-5.4,4.4-5.4C253.2,25.2,254.1,25.6,254.7,26.2z M254.4,27.8c-0.4-0.3-1.1-0.5-1.9-0.5
			c-1.3,0-2.1,0.9-2.1,3.3c0,2.5,0.8,3.4,2.1,3.4c0.7,0,1.4-0.3,1.9-0.9V27.8z"/>
		<path class="st2" d="M262,31.3c0,1.6,0.9,2.5,2.6,2.5c1,0,2.1-0.4,3-0.9l0.5,1.9c-0.9,0.5-2.3,1-3.9,1c-3.2,0-5.1-2-5.1-5.4
			c0-3.2,1.5-5.3,4.8-5.3c3.1,0,4.3,2.3,4.3,4.9v1.2H262V31.3z M263.9,27.2c-1.4,0-1.9,1.2-1.9,2.5h3.8
			C265.7,28.4,265.3,27.2,263.9,27.2z"/>
		<path class="st2" d="M276.8,35.7v-6.1c0-1.6-0.6-2.3-1.8-2.3c-0.7,0-1.3,0.3-1.8,0.6v7.8h-2.8V25.4h1.9l0.4,1.2
			c0.6-0.7,1.7-1.4,3.3-1.4c2.6,0,3.6,1.5,3.6,4.1v6.4H276.8z"/>
		<path class="st2" d="M290.1,35c-0.6,0.3-2,0.9-3.5,0.9c-3.1,0-4.9-1.7-4.9-5.4c0-3.4,1.8-5.4,4.9-5.4c1.4,0,2.5,0.3,3.5,0.8
			l-0.7,1.9c-0.7-0.4-1.7-0.6-2.6-0.6c-1.4,0-2.3,1-2.3,3.3s0.9,3.3,2.4,3.3c1.1,0,2.1-0.4,2.8-0.8L290.1,35z"/>
		<path class="st2" d="M292.7,35.7v-8.3l-1.2-0.3v-1.7h3.9v10.3H292.7z M292.7,21.2h2.8v2.5h-2.8V21.2z"/>
		<path class="st2" d="M304.3,35.7l-0.4-1.2c-0.5,0.7-1.6,1.4-3,1.4c-2.1,0-3.4-1.3-3.4-3.3c0-1.9,1.4-3,3.9-3h2.2v-0.5
			c0-1.3-0.8-1.7-1.8-1.7c-1.2,0-2.2,0.3-3.1,0.7l-0.7-2c1-0.4,2.4-0.8,4.1-0.8c2.9,0,4.2,1.3,4.2,4v6.5h-2L304.3,35.7L304.3,35.7z
			 M303.5,31.2h-1.7c-1.1,0-1.7,0.5-1.7,1.3c0,0.9,0.5,1.5,1.5,1.5c0.7,0,1.3-0.3,1.8-0.7v-2.1C303.4,31.2,303.5,31.2,303.5,31.2z"
			/>
		<path class="st2" d="M154.6,51.4c-0.2-0.6-0.3-1.1-0.3-1.9v-3.1h2.7v14.5h-2.2l-0.3-1.1c-0.4,0.6-1.4,1.3-2.7,1.3
			c-2.3,0-4.2-1.7-4.2-5.4c0-3.4,1.9-5.4,4.4-5.4C153.1,50.4,154,50.8,154.6,51.4z M154.3,53c-0.4-0.3-1.1-0.5-1.9-0.5
			c-1.3,0-2.1,0.9-2.1,3.3c0,2.5,0.8,3.4,2.1,3.4c0.7,0,1.4-0.3,1.9-0.9V53z"/>
		<path class="st2" d="M161.9,56.5c0,1.6,0.9,2.5,2.6,2.5c1,0,2.1-0.4,3-0.9L168,60c-0.9,0.5-2.3,1-3.9,1c-3.2,0-5.1-2-5.1-5.4
			c0-3.2,1.5-5.3,4.8-5.3c3.1,0,4.3,2.3,4.3,4.9v1.2L161.9,56.5L161.9,56.5z M163.8,52.4c-1.4,0-1.9,1.2-1.9,2.5h3.8
			C165.6,53.6,165.2,52.4,163.8,52.4z"/>
		<path class="st2" d="M179.2,61.1c-1.9,0-3.5-0.7-4.6-1.5l1-2.2c0.8,0.7,2.3,1.4,3.6,1.4s2.2-0.8,2.2-1.9c0-3-6.6-1.5-6.6-6.5
			c0-2.1,1.7-3.9,5-3.9c1.7,0,3.1,0.4,4.2,1l-0.9,2.2c-0.8-0.5-2-0.8-3.3-0.8s-2.1,0.4-2.1,1.5c0,2.5,6.6,1.6,6.6,6.4
			C184.3,59,182.4,61.1,179.2,61.1z"/>
		<path class="st2" d="M188.8,56.5c0,1.6,0.9,2.5,2.6,2.5c1,0,2.1-0.4,3-0.9l0.5,1.9c-0.9,0.5-2.3,1-3.9,1c-3.2,0-5.1-2-5.1-5.4
			c0-3.2,1.5-5.3,4.8-5.3c3.1,0,4.3,2.3,4.3,4.9v1.2L188.8,56.5L188.8,56.5z M190.7,52.4c-1.4,0-1.9,1.2-1.9,2.5h3.8
			C192.5,53.6,192.1,52.4,190.7,52.4z"/>
		<path class="st2" d="M206.6,50.6v2c-0.5,0-1.2-0.1-1.9-0.4c0.5,0.4,0.9,0.9,1,1.6c0,2.5-2.5,3.5-4.2,3.5c-0.4,0-0.9-0.1-1.3-0.2
			c-0.3,0.1-0.5,0.3-0.5,0.6c0,1.1,6.5-0.2,6.5,3.7c0,2.4-2.3,3.7-4.9,3.7c-2.2,0-4.3-0.9-4.3-2.8c0-1.3,1-2,2.7-2.3
			c-1.3-0.1-2.6-0.5-2.6-1.7c0-0.9,0.8-1.5,2-1.6c-1-0.6-1.8-1.4-1.8-2.9c0-2.7,2.6-3.5,4.2-3.5C202.5,50.4,204.8,50.6,206.6,50.6z
			 M201,60.3c-1,0.1-1.6,0.6-1.6,1.5s0.8,1.6,1.9,1.6c1.2,0,2.1-0.6,2.1-1.7C203.4,60.8,202.6,60.5,201,60.3z M203.2,53.9
			c0-1.2-1-1.5-1.8-1.5s-1.8,0.3-1.8,1.5c0,1.3,1,1.6,1.8,1.6S203.2,55.2,203.2,53.9z"/>
		<path class="st2" d="M215.5,60.9l-0.4-1.3c-0.5,0.6-1.6,1.5-3.2,1.5c-2.6,0-3.7-1.4-3.7-4.3v-6.2h2.7v6.3c0,1.6,0.6,2.1,1.8,2.1
			c0.7,0,1.4-0.3,1.8-0.6v-7.8h2.8v10.3H215.5z"/>
		<path class="st2" d="M225.5,52.9c-0.3-0.1-0.8-0.2-1.3-0.2c-0.7,0-1.4,0.3-1.8,0.7v7.5h-2.7V50.6h1.9l0.3,1.4h0.1
			c0.3-0.7,1.2-1.6,2.5-1.6c0.5,0,1,0.1,1.2,0.1L225.5,52.9z"/>
		<path class="st2" d="M228,60.9v-8.3l-1.2-0.3v-1.7h3.9v10.3H228z M227.9,46.4h2.8v2.5h-2.8V46.4z"/>
		<path class="st2" d="M239.9,51.4c-0.2-0.6-0.3-1.1-0.3-1.9v-3.1h2.7v14.5h-2.2l-0.3-1.1c-0.4,0.6-1.4,1.3-2.7,1.3
			c-2.3,0-4.2-1.7-4.2-5.4c0-3.4,1.9-5.4,4.4-5.4C238.4,50.4,239.3,50.8,239.9,51.4z M239.6,53c-0.4-0.3-1.1-0.5-1.9-0.5
			c-1.3,0-2.1,0.9-2.1,3.3c0,2.5,0.8,3.4,2.1,3.4c0.7,0,1.4-0.3,1.9-0.9V53z"/>
		<path class="st2" d="M251.2,60.9l-0.4-1.2c-0.5,0.7-1.6,1.4-3,1.4c-2.1,0-3.4-1.3-3.4-3.3c0-1.9,1.4-3,3.9-3h2.2v-0.5
			c0-1.3-0.8-1.7-1.8-1.7c-1.2,0-2.2,0.3-3.1,0.7l-0.7-2c1-0.4,2.4-0.8,4.1-0.8c2.9,0,4.2,1.3,4.2,4V61L251.2,60.9L251.2,60.9z
			 M250.4,56.4h-1.7c-1.1,0-1.7,0.5-1.7,1.3c0,0.9,0.5,1.5,1.5,1.5c0.7,0,1.3-0.3,1.8-0.7L250.4,56.4L250.4,56.4z"/>
		<path class="st2" d="M262.1,51.4c-0.2-0.6-0.3-1.1-0.3-1.9v-3.1h2.7v14.5h-2.2l-0.3-1.1c-0.4,0.6-1.4,1.3-2.7,1.3
			c-2.3,0-4.2-1.7-4.2-5.4c0-3.4,1.9-5.4,4.4-5.4C260.6,50.4,261.5,50.8,262.1,51.4z M261.8,53c-0.4-0.3-1.1-0.5-1.9-0.5
			c-1.3,0-2.1,0.9-2.1,3.3c0,2.5,0.8,3.4,2.1,3.4c0.7,0,1.4-0.3,1.9-0.9V53z"/>
		<path class="st2" d="M152.1,86.3c-1.9,0-3.5-0.7-4.6-1.5l1-2.2c0.8,0.7,2.3,1.4,3.6,1.4s2.2-0.8,2.2-1.9c0-3-6.6-1.5-6.6-6.5
			c0-2.1,1.7-3.9,5-3.9c1.7,0,3.1,0.4,4.2,1l-0.9,2.2c-0.8-0.5-2-0.8-3.3-0.8s-2.1,0.4-2.1,1.5c0,2.5,6.6,1.6,6.6,6.4
			C157.2,84.2,155.4,86.3,152.1,86.3z"/>
		<path class="st2" d="M168.6,81c0,3.5-1.8,5.4-4.8,5.4c-3.1,0-4.8-1.8-4.8-5.4c0-3,1.7-5.3,4.8-5.3C166.9,75.6,168.6,77.9,168.6,81
			z M165.8,81c0-2.5-0.7-3.3-2-3.3s-2,0.9-2,3.3s0.7,3.4,2,3.4S165.8,83.4,165.8,81z"/>
		<path class="st2" d="M178.8,85.4c-0.6,0.3-2,0.9-3.5,0.9c-3.1,0-4.9-1.7-4.9-5.4c0-3.4,1.8-5.4,4.9-5.4c1.4,0,2.5,0.3,3.5,0.8
			l-0.7,1.9c-0.7-0.4-1.7-0.6-2.6-0.6c-1.4,0-2.3,1-2.3,3.3s0.9,3.3,2.4,3.3c1.1,0,2.1-0.4,2.8-0.8L178.8,85.4z"/>
		<path class="st2" d="M181.5,86.1v-8.3l-1.2-0.3v-1.7h3.9v10.3H181.5z M181.4,71.6h2.8v2.5h-2.8V71.6z"/>
		<path class="st2" d="M193.1,86.1l-0.4-1.2c-0.5,0.7-1.6,1.4-3,1.4c-2.1,0-3.4-1.3-3.4-3.3c0-1.9,1.4-3,3.9-3h2.2v-0.5
			c0-1.3-0.8-1.7-1.8-1.7c-1.2,0-2.2,0.3-3.1,0.7l-0.7-2c1-0.4,2.4-0.8,4.1-0.8c2.9,0,4.2,1.3,4.2,4v6.5L193.1,86.1L193.1,86.1z
			 M192.3,81.6h-1.7c-1.1,0-1.7,0.5-1.7,1.3c0,0.9,0.5,1.5,1.5,1.5c0.7,0,1.3-0.3,1.8-0.7L192.3,81.6L192.3,81.6z"/>
		<path class="st2" d="M197.4,83.4V71.6h2.7v11.6c0,0.9,0.5,1,1.7,1v1.9c0,0-0.8,0.2-1.5,0.2C198.1,86.3,197.4,85.2,197.4,83.4z"/>
	</g>
</g>
<g>
	<path class="st4" d="M425.3,176.6h-19V237h-33.7V63.5h52.7c35.5,0,66,17,66,54.2C491.4,151.2,466.2,176.6,425.3,176.6z M424.5,92
		h-18.2v58.1h18.2c19.8,0,31.1-12.1,31.1-31.1C455.6,101.3,443.8,92,424.5,92z"/>
	<path class="st4" d="M517.1,237V63.5h33.7V237H517.1z"/>
	<path class="st4" d="M607.8,237h-32.9l47-173.5h56L723.4,237h-37.8l-9-39.1H617L607.8,237z M642.2,93.1l-19,77.6h47.3l-17.7-77.6
		H642.2z"/>
	<path class="st4" d="M789.7,239.6c-23.1,0-42.7-8.2-56.5-18.5l12.8-26.5c10,8.7,28.3,16.7,44.2,16.7s26.7-9.8,26.7-22.9
		c0-36.8-80.2-18.5-80.2-79.7c0-26.2,20.6-47.8,61.2-47.8c20.3,0,37.5,4.4,51.7,11.8l-11.3,27c-9.5-5.7-24.9-9.5-40.9-9.5
		c-15.7,0-26,5.1-26,18c0,31.1,80.7,19,80.7,78.1C852.2,213.9,829.3,239.6,789.7,239.6z"/>
</g>
</svg>
