<?xml version="1.0" encoding="utf-8"?>
<!-- Generator: Adobe Illustrator 27.9.0, SVG Export Plug-In . SVG Version: 6.00 Build 0)  -->
<svg version="1.1" xmlns="http://www.w3.org/2000/svg" xmlns:xlink="http://www.w3.org/1999/xlink" x="0px" y="0px"
	 viewBox="0 0 264 50.5" style="enable-background:new 0 0 264 50.5;" xml:space="preserve">
<style type="text/css">
	.st0{display:none;}
	.st1{display:inline;}
	.st2{fill:#0C64AE;}
	.st3{fill:#E7353A;}
	.st4{fill:#FFFFFF;}
	.st5{fill:#0C4581;}
</style>
<g id="Capa_1">
</g>
<g id="blanco" class="st0">
	<g class="st1">
		<g>
			<g>
				<rect x="13.1" class="st2" width="23.1" height="6.2"/>
				<rect x="36.2" class="st3" width="33.3" height="6.2"/>
			</g>
		</g>
		<g>
			<path class="st4" d="M22.8,36.2h-3.5v11.1h-6.2V15.5h9.7c6.5,0,12.1,3.1,12.1,9.9C34.9,31.6,30.3,36.2,22.8,36.2z M22.7,20.7
				h-3.3v10.7h3.3c3.6,0,5.7-2.2,5.7-5.7C28.4,22.4,26.2,20.7,22.7,20.7z"/>
			<path class="st4" d="M39.7,47.3V15.5h6.2v31.8H39.7z"/>
			<path class="st4" d="M56.3,47.3h-6l8.6-31.8h10.3l8.3,31.8h-6.9l-1.7-7.2H58L56.3,47.3z M62.6,20.9l-3.5,14.2h8.7l-3.2-14.2H62.6
				z"/>
			<path class="st4" d="M89.7,47.8c-4.2,0-7.8-1.5-10.4-3.4l2.3-4.9c1.8,1.6,5.2,3.1,8.1,3.1c2.9,0,4.9-1.8,4.9-4.2
				C94.7,31.7,80,35,80,23.8C80,19,83.7,15,91.2,15c3.7,0,6.9,0.8,9.5,2.2l-2.1,5c-1.7-1-4.6-1.7-7.5-1.7c-2.9,0-4.8,0.9-4.8,3.3
				c0,5.7,14.8,3.5,14.8,14.3C101.1,43.1,96.9,47.8,89.7,47.8z"/>
		</g>
		<g>
			<path class="st4" d="M113.8,27.9c-1.5,0-2.7-0.5-3.6-1.2l0.8-1.7c0.6,0.6,1.8,1.1,2.8,1.1s1.7-0.6,1.7-1.5c0-2.4-5.2-1.2-5.2-5.1
				c0-1.7,1.3-3.1,3.9-3.1c1.3,0,2.4,0.3,3.3,0.8l-0.7,1.7c-0.6-0.4-1.6-0.6-2.6-0.6c-1,0-1.7,0.3-1.7,1.2c0,2,5.2,1.2,5.2,5
				C117.8,26.3,116.3,27.9,113.8,27.9z"/>
			<path class="st4" d="M125.1,27.8l-0.3-1c-0.4,0.5-1.2,1.2-2.5,1.2c-2,0-2.9-1.1-2.9-3.4v-4.9h2.2v4.9c0,1.2,0.4,1.7,1.4,1.7
				c0.6,0,1.1-0.2,1.5-0.5v-6.1h2.2v8.1H125.1z"/>
			<path class="st4" d="M130.5,28.5v2.4h-2.2V19.7h1.9l0.2,0.9c0.4-0.5,1.2-1,2.1-1c1.9,0,3.3,1.4,3.3,4.2c0,2.8-1.7,4.2-3.5,4.2
				c-0.9,0-1.5-0.3-2-0.9C130.2,27,130.5,27.9,130.5,28.5z M130.5,25.5c0.3,0.5,0.8,0.8,1.4,0.8c1,0,1.6-0.7,1.6-2.6
				c0-1.9-0.6-2.6-1.6-2.6c-0.6,0-1.1,0.3-1.5,0.7V25.5z"/>
			<path class="st4" d="M139.2,24.3c0,1.3,0.7,2,2.1,2c0.8,0,1.7-0.3,2.4-0.7l0.4,1.5c-0.7,0.4-1.8,0.8-3.1,0.8c-2.5,0-4-1.6-4-4.2
				c0-2.5,1.2-4.2,3.8-4.2c2.5,0,3.4,1.8,3.4,3.9v0.9H139.2z M140.8,21.1c-1.1,0-1.5,1-1.5,1.9h3C142.2,22,141.9,21.1,140.8,21.1z"
				/>
			<path class="st4" d="M150.5,21.5c-0.3-0.1-0.6-0.1-1-0.1c-0.6,0-1.1,0.2-1.5,0.5v5.9h-2.2v-8.1h1.5l0.2,1.1h0
				c0.2-0.6,1-1.2,1.9-1.2c0.4,0,0.8,0.1,0.9,0.1L150.5,21.5z"/>
			<path class="st4" d="M152.5,27.8v-6.6l-0.9-0.2v-1.4h3.1v8.1H152.5z M152.4,16.4h2.2v2h-2.2V16.4z"/>
			<path class="st4" d="M161.7,27.8V23c0-1.2-0.5-1.8-1.5-1.8c-0.6,0-1,0.2-1.4,0.5v6.1h-2.2v-8.1h1.5l0.3,0.9
				c0.5-0.5,1.4-1.1,2.6-1.1c2.1,0,2.9,1.2,2.9,3.3v5H161.7z"/>
			<path class="st4" d="M168.6,27.9c-1.4,0-2.4-0.7-2.4-2.7v-4H165v-1.5h1.2v-1.4l2.1-0.7v2.1h2.2v1.5h-2.2v4c0,0.6,0.3,0.9,0.9,0.9
				c0.4,0,0.9-0.1,1.2-0.3l0.3,1.6C170.3,27.7,169.5,27.9,168.6,27.9z"/>
			<path class="st4" d="M173.7,24.3c0,1.3,0.7,2,2.1,2c0.8,0,1.7-0.3,2.4-0.7l0.4,1.5c-0.7,0.4-1.8,0.8-3.1,0.8c-2.5,0-4-1.6-4-4.2
				c0-2.5,1.2-4.2,3.8-4.2c2.5,0,3.4,1.8,3.4,3.9v0.9H173.7z M175.2,21.1c-1.1,0-1.5,1-1.5,1.9h3C176.6,22,176.3,21.1,175.2,21.1z"
				/>
			<path class="st4" d="M185.4,27.8V23c0-1.2-0.5-1.8-1.5-1.8c-0.6,0-1,0.2-1.4,0.5v6.1h-2.2v-8.1h1.5l0.3,0.9
				c0.5-0.5,1.4-1.1,2.6-1.1c2.1,0,2.9,1.2,2.9,3.3v5H185.4z"/>
			<path class="st4" d="M194.6,20.3c-0.1-0.5-0.2-0.9-0.2-1.5v-2.5h2.2v11.4h-1.8l-0.2-0.9c-0.3,0.5-1.1,1.1-2.2,1.1
				c-1.8,0-3.3-1.3-3.3-4.2c0-2.7,1.5-4.2,3.5-4.2C193.5,19.5,194.2,19.8,194.6,20.3z M194.4,21.5c-0.3-0.2-0.8-0.4-1.5-0.4
				c-1,0-1.7,0.7-1.7,2.6c0,1.9,0.6,2.7,1.6,2.7c0.5,0,1.1-0.3,1.5-0.7V21.5z"/>
			<path class="st4" d="M200.4,24.3c0,1.3,0.7,2,2.1,2c0.8,0,1.7-0.3,2.4-0.7l0.4,1.5c-0.7,0.4-1.8,0.8-3.1,0.8c-2.5,0-4-1.6-4-4.2
				c0-2.5,1.2-4.2,3.8-4.2c2.5,0,3.4,1.8,3.4,3.9v0.9H200.4z M201.9,21.1c-1.1,0-1.5,1-1.5,1.9h3C203.3,22,203,21.1,201.9,21.1z"/>
			<path class="st4" d="M212.1,27.8V23c0-1.2-0.5-1.8-1.5-1.8c-0.6,0-1,0.2-1.4,0.5v6.1H207v-8.1h1.5l0.3,0.9
				c0.5-0.5,1.4-1.1,2.6-1.1c2.1,0,2.9,1.2,2.9,3.3v5H212.1z"/>
			<path class="st4" d="M222.5,27.2c-0.5,0.2-1.6,0.7-2.8,0.7c-2.4,0-3.9-1.4-3.9-4.2c0-2.6,1.5-4.2,3.9-4.2c1.1,0,2,0.2,2.8,0.7
				l-0.6,1.5c-0.6-0.3-1.3-0.5-2-0.5c-1.1,0-1.8,0.8-1.8,2.6c0,1.8,0.7,2.6,1.9,2.6c0.8,0,1.7-0.3,2.2-0.6L222.5,27.2z"/>
			<path class="st4" d="M224.6,27.8v-6.6l-0.9-0.2v-1.4h3.1v8.1H224.6z M224.6,16.4h2.2v2h-2.2V16.4z"/>
			<path class="st4" d="M233.7,27.8l-0.3-1c-0.4,0.6-1.2,1.1-2.4,1.1c-1.6,0-2.7-1-2.7-2.6c0-1.5,1.1-2.4,3.1-2.4h1.7v-0.4
				c0-1-0.6-1.4-1.4-1.4c-1,0-1.8,0.2-2.4,0.5l-0.5-1.5c0.8-0.3,1.9-0.7,3.2-0.7c2.3,0,3.3,1.1,3.3,3.1v5.1H233.7z M233.1,24.2h-1.3
				c-0.9,0-1.3,0.4-1.3,1c0,0.7,0.4,1.2,1.2,1.2c0.5,0,1-0.2,1.4-0.5V24.2z"/>
			<path class="st4" d="M115.7,37.8c-0.1-0.5-0.2-0.9-0.2-1.5v-2.4h2.2v11.4h-1.8l-0.2-0.9c-0.3,0.5-1.1,1.1-2.2,1.1
				c-1.8,0-3.3-1.3-3.3-4.2c0-2.7,1.5-4.2,3.5-4.2C114.5,37,115.2,37.3,115.7,37.8z M115.5,39c-0.3-0.2-0.8-0.4-1.5-0.4
				c-1,0-1.7,0.7-1.7,2.6c0,1.9,0.6,2.7,1.6,2.7c0.5,0,1.1-0.3,1.5-0.7V39z"/>
			<path class="st4" d="M121.4,41.8c0,1.3,0.7,2,2.1,2c0.8,0,1.7-0.3,2.4-0.7l0.4,1.5c-0.7,0.4-1.8,0.8-3.1,0.8c-2.5,0-4-1.6-4-4.2
				c0-2.5,1.2-4.2,3.8-4.2c2.5,0,3.4,1.8,3.4,3.9v0.9H121.4z M123,38.6c-1.1,0-1.5,1-1.5,1.9h3C124.4,39.5,124.1,38.6,123,38.6z"/>
			<path class="st4" d="M135.1,45.4c-1.5,0-2.7-0.5-3.6-1.2l0.8-1.7c0.6,0.6,1.8,1.1,2.8,1.1s1.7-0.6,1.7-1.5c0-2.4-5.2-1.2-5.2-5.1
				c0-1.7,1.3-3.1,3.9-3.1c1.3,0,2.4,0.3,3.3,0.8l-0.7,1.7c-0.6-0.4-1.6-0.6-2.6-0.6c-1,0-1.7,0.3-1.7,1.2c0,2,5.2,1.2,5.2,5
				C139.1,43.8,137.7,45.4,135.1,45.4z"/>
			<path class="st4" d="M142.6,41.8c0,1.3,0.7,2,2.1,2c0.8,0,1.7-0.3,2.4-0.7l0.4,1.5c-0.7,0.4-1.8,0.8-3.1,0.8c-2.5,0-4-1.6-4-4.2
				c0-2.5,1.2-4.2,3.8-4.2c2.5,0,3.4,1.8,3.4,3.9v0.9H142.6z M144.2,38.6c-1.1,0-1.5,1-1.5,1.9h3C145.6,39.5,145.3,38.6,144.2,38.6z
				"/>
			<path class="st4" d="M156.7,37.2l0,1.6c-0.4,0-1-0.1-1.5-0.3c0.4,0.3,0.7,0.7,0.8,1.3c0,2-2,2.8-3.3,2.8c-0.3,0-0.7-0.1-1-0.1
				c-0.2,0.1-0.4,0.2-0.4,0.4c0,0.9,5.1-0.2,5.1,2.9c0,1.9-1.8,2.9-3.9,2.9c-1.7,0-3.4-0.7-3.4-2.2c0-1,0.8-1.6,2.2-1.8
				c-1-0.1-2-0.4-2-1.4c0-0.7,0.6-1.2,1.5-1.2c-0.8-0.4-1.5-1.1-1.5-2.3c0-2.2,2-2.8,3.3-2.8C153.5,37,155.3,37.1,156.7,37.2z
				 M152.3,44.8c-0.8,0.1-1.2,0.5-1.2,1.2c0,0.7,0.6,1.2,1.5,1.2c1,0,1.6-0.5,1.6-1.3C154.2,45.2,153.5,44.9,152.3,44.8z M154,39.7
				c0-1-0.8-1.2-1.4-1.2s-1.5,0.2-1.5,1.2c0,1,0.8,1.3,1.5,1.3C153.2,41,154,40.8,154,39.7z"/>
			<path class="st4" d="M163.8,45.3l-0.3-1c-0.4,0.5-1.2,1.2-2.5,1.2c-2,0-2.9-1.1-2.9-3.4v-4.9h2.2v4.9c0,1.2,0.4,1.7,1.4,1.7
				c0.6,0,1.1-0.2,1.5-0.5v-6.1h2.2v8.1H163.8z"/>
			<path class="st4" d="M171.6,39c-0.3-0.1-0.6-0.1-1-0.1c-0.6,0-1.1,0.2-1.5,0.5v5.9H167v-8.1h1.5l0.2,1.1h0c0.2-0.6,1-1.2,1.9-1.2
				c0.4,0,0.8,0.1,0.9,0.1L171.6,39z"/>
			<path class="st4" d="M173.6,45.3v-6.6l-0.9-0.2v-1.4h3.1v8.1H173.6z M173.5,33.8h2.2v2h-2.2V33.8z"/>
			<path class="st4" d="M182.9,37.8c-0.1-0.5-0.2-0.9-0.2-1.5v-2.4h2.2v11.4h-1.8l-0.2-0.9c-0.3,0.5-1.1,1.1-2.2,1.1
				c-1.8,0-3.3-1.3-3.3-4.2c0-2.7,1.5-4.2,3.5-4.2C181.8,37,182.5,37.3,182.9,37.8z M182.7,39c-0.3-0.2-0.8-0.4-1.5-0.4
				c-1,0-1.7,0.7-1.7,2.6c0,1.9,0.6,2.7,1.6,2.7c0.5,0,1.1-0.3,1.5-0.7V39z"/>
			<path class="st4" d="M191.8,45.3l-0.3-1c-0.4,0.6-1.2,1.1-2.4,1.1c-1.6,0-2.7-1-2.7-2.6c0-1.5,1.1-2.4,3.1-2.4h1.7V40
				c0-1-0.6-1.4-1.4-1.4c-1,0-1.8,0.2-2.4,0.5l-0.5-1.5c0.8-0.3,1.9-0.7,3.2-0.7c2.3,0,3.3,1.1,3.3,3.1v5.1H191.8z M191.2,41.7h-1.3
				c-0.9,0-1.3,0.4-1.3,1c0,0.7,0.4,1.2,1.2,1.2c0.5,0,1-0.2,1.4-0.5V41.7z"/>
			<path class="st4" d="M200.4,37.8c-0.1-0.5-0.2-0.9-0.2-1.5v-2.4h2.2v11.4h-1.8l-0.2-0.9c-0.3,0.5-1.1,1.1-2.2,1.1
				c-1.8,0-3.3-1.3-3.3-4.2c0-2.7,1.5-4.2,3.5-4.2C199.3,37,200,37.3,200.4,37.8z M200.2,39c-0.3-0.2-0.8-0.4-1.5-0.4
				c-1,0-1.7,0.7-1.7,2.6c0,1.9,0.6,2.7,1.6,2.7c0.5,0,1.1-0.3,1.5-0.7V39z"/>
			<path class="st4" d="M211.3,45.4c-1.5,0-2.7-0.5-3.6-1.2l0.8-1.7c0.6,0.6,1.8,1.1,2.8,1.1s1.7-0.6,1.7-1.5c0-2.4-5.2-1.2-5.2-5.1
				c0-1.7,1.3-3.1,3.9-3.1c1.3,0,2.4,0.3,3.3,0.8l-0.7,1.7c-0.6-0.4-1.6-0.6-2.6-0.6c-1,0-1.7,0.3-1.7,1.2c0,2,5.2,1.2,5.2,5
				C215.4,43.8,213.9,45.4,211.3,45.4z"/>
			<path class="st4" d="M224.3,41.2c0,2.8-1.4,4.2-3.8,4.2c-2.4,0-3.8-1.5-3.8-4.2c0-2.4,1.3-4.2,3.8-4.2
				C222.9,37,224.3,38.8,224.3,41.2z M222.1,41.2c0-2-0.6-2.6-1.6-2.6c-1,0-1.6,0.7-1.6,2.6c0,1.9,0.5,2.6,1.6,2.6
				S222.1,43.1,222.1,41.2z"/>
			<path class="st4" d="M232.4,44.7c-0.5,0.2-1.6,0.7-2.8,0.7c-2.4,0-3.9-1.4-3.9-4.2c0-2.6,1.5-4.2,3.9-4.2c1.1,0,2,0.2,2.8,0.7
				l-0.6,1.5c-0.6-0.3-1.3-0.5-2-0.5c-1.1,0-1.8,0.8-1.8,2.6c0,1.8,0.7,2.6,1.9,2.6c0.8,0,1.7-0.3,2.2-0.6L232.4,44.7z"/>
			<path class="st4" d="M234.5,45.3v-6.6l-0.9-0.2v-1.4h3.1v8.1H234.5z M234.4,33.8h2.2v2h-2.2V33.8z"/>
			<path class="st4" d="M243.6,45.3l-0.3-1c-0.4,0.6-1.2,1.1-2.4,1.1c-1.6,0-2.7-1-2.7-2.6c0-1.5,1.1-2.4,3.1-2.4h1.7V40
				c0-1-0.6-1.4-1.4-1.4c-1,0-1.8,0.2-2.4,0.5l-0.5-1.5c0.8-0.3,1.9-0.7,3.2-0.7c2.3,0,3.3,1.1,3.3,3.1v5.1H243.6z M243,41.7h-1.3
				c-0.9,0-1.3,0.4-1.3,1c0,0.7,0.4,1.2,1.2,1.2c0.5,0,1-0.2,1.4-0.5V41.7z"/>
			<path class="st4" d="M247,43.1v-9.3h2.1V43c0,0.7,0.4,0.8,1.3,0.8v1.5c0,0-0.6,0.1-1.2,0.1C247.6,45.4,247,44.6,247,43.1z"/>
		</g>
	</g>
</g>
<g id="color">
	<g>
		<g>
			<g>
				<rect x="13.1" class="st2" width="23.1" height="6.2"/>
				<rect x="36.2" class="st3" width="33.3" height="6.2"/>
			</g>
		</g>
		<g>
			<path class="st5" d="M22.8,36.2h-3.5v11.1h-6.2V15.5h9.7c6.5,0,12.1,3.1,12.1,9.9C34.9,31.6,30.3,36.2,22.8,36.2z M22.7,20.7
				h-3.3v10.7h3.3c3.6,0,5.7-2.2,5.7-5.7C28.4,22.4,26.2,20.7,22.7,20.7z"/>
			<path class="st5" d="M39.7,47.3V15.5h6.2v31.8H39.7z"/>
			<path class="st5" d="M56.3,47.3h-6l8.6-31.8h10.3l8.3,31.8h-6.9l-1.7-7.2H58L56.3,47.3z M62.6,20.9l-3.5,14.2h8.7l-3.2-14.2H62.6
				z"/>
			<path class="st5" d="M89.7,47.8c-4.2,0-7.8-1.5-10.4-3.4l2.3-4.9c1.8,1.6,5.2,3.1,8.1,3.1s4.9-1.8,4.9-4.2
				C94.7,31.7,80,35,80,23.8C80,19,83.7,15,91.2,15c3.7,0,6.9,0.8,9.5,2.2l-2.1,5c-1.7-1-4.6-1.7-7.5-1.7c-2.9,0-4.8,0.9-4.8,3.3
				c0,5.7,14.8,3.5,14.8,14.3C101.1,43.1,96.9,47.8,89.7,47.8z"/>
		</g>
		<g>
			<path class="st5" d="M113.8,27.9c-1.5,0-2.7-0.5-3.6-1.2l0.8-1.7c0.6,0.6,1.8,1.1,2.8,1.1s1.7-0.6,1.7-1.5c0-2.4-5.2-1.2-5.2-5.1
				c0-1.7,1.3-3.1,3.9-3.1c1.3,0,2.4,0.3,3.3,0.8l-0.7,1.7c-0.6-0.4-1.6-0.6-2.6-0.6c-1,0-1.7,0.3-1.7,1.2c0,2,5.2,1.2,5.2,5
				C117.8,26.3,116.3,27.9,113.8,27.9z"/>
			<path class="st5" d="M125.1,27.8l-0.3-1c-0.4,0.5-1.2,1.2-2.5,1.2c-2,0-2.9-1.1-2.9-3.4v-4.9h2.2v4.9c0,1.2,0.4,1.7,1.4,1.7
				c0.6,0,1.1-0.2,1.5-0.5v-6.1h2.2v8.1H125.1z"/>
			<path class="st5" d="M130.5,28.5v2.4h-2.2V19.7h1.9l0.2,0.9c0.4-0.5,1.2-1,2.1-1c1.9,0,3.3,1.4,3.3,4.2c0,2.8-1.7,4.2-3.5,4.2
				c-0.9,0-1.5-0.3-2-0.9C130.2,27,130.5,27.9,130.5,28.5z M130.5,25.5c0.3,0.5,0.8,0.8,1.4,0.8c1,0,1.6-0.7,1.6-2.6
				c0-1.9-0.6-2.6-1.6-2.6c-0.6,0-1.1,0.3-1.5,0.7V25.5z"/>
			<path class="st5" d="M139.2,24.3c0,1.3,0.7,2,2.1,2c0.8,0,1.7-0.3,2.4-0.7l0.4,1.5c-0.7,0.4-1.8,0.8-3.1,0.8c-2.5,0-4-1.6-4-4.2
				c0-2.5,1.2-4.2,3.8-4.2c2.5,0,3.4,1.8,3.4,3.9v0.9H139.2z M140.8,21.1c-1.1,0-1.5,1-1.5,1.9h3C142.2,22,141.9,21.1,140.8,21.1z"
				/>
			<path class="st5" d="M150.5,21.5c-0.3-0.1-0.6-0.1-1-0.1c-0.6,0-1.1,0.2-1.5,0.5v5.9h-2.2v-8.1h1.5l0.2,1.1h0
				c0.2-0.6,1-1.2,1.9-1.2c0.4,0,0.8,0.1,0.9,0.1L150.5,21.5z"/>
			<path class="st5" d="M152.5,27.8v-6.6l-0.9-0.2v-1.4h3.1v8.1H152.5z M152.4,16.4h2.2v2h-2.2V16.4z"/>
			<path class="st5" d="M161.7,27.8V23c0-1.2-0.5-1.8-1.5-1.8c-0.6,0-1,0.2-1.4,0.5v6.1h-2.2v-8.1h1.5l0.3,0.9
				c0.5-0.5,1.4-1.1,2.6-1.1c2.1,0,2.9,1.2,2.9,3.3v5H161.7z"/>
			<path class="st5" d="M168.6,27.9c-1.4,0-2.4-0.7-2.4-2.7v-4H165v-1.5h1.2v-1.4l2.1-0.7v2.1h2.2v1.5h-2.2v4c0,0.6,0.3,0.9,0.9,0.9
				c0.4,0,0.9-0.1,1.2-0.3l0.3,1.6C170.3,27.7,169.5,27.9,168.6,27.9z"/>
			<path class="st5" d="M173.7,24.3c0,1.3,0.7,2,2.1,2c0.8,0,1.7-0.3,2.4-0.7l0.4,1.5c-0.7,0.4-1.8,0.8-3.1,0.8c-2.5,0-4-1.6-4-4.2
				c0-2.5,1.2-4.2,3.8-4.2c2.5,0,3.4,1.8,3.4,3.9v0.9H173.7z M175.2,21.1c-1.1,0-1.5,1-1.5,1.9h3C176.6,22,176.3,21.1,175.2,21.1z"
				/>
			<path class="st5" d="M185.4,27.8V23c0-1.2-0.5-1.8-1.5-1.8c-0.6,0-1,0.2-1.4,0.5v6.1h-2.2v-8.1h1.5l0.3,0.9
				c0.5-0.5,1.4-1.1,2.6-1.1c2.1,0,2.9,1.2,2.9,3.3v5H185.4z"/>
			<path class="st5" d="M194.6,20.3c-0.1-0.5-0.2-0.9-0.2-1.5v-2.5h2.2v11.4h-1.8l-0.2-0.9c-0.3,0.5-1.1,1.1-2.2,1.1
				c-1.8,0-3.3-1.3-3.3-4.2c0-2.7,1.5-4.2,3.5-4.2C193.5,19.5,194.2,19.8,194.6,20.3z M194.4,21.5c-0.3-0.2-0.8-0.4-1.5-0.4
				c-1,0-1.7,0.7-1.7,2.6c0,1.9,0.6,2.7,1.6,2.7c0.5,0,1.1-0.3,1.5-0.7V21.5z"/>
			<path class="st5" d="M200.4,24.3c0,1.3,0.7,2,2.1,2c0.8,0,1.7-0.3,2.4-0.7l0.4,1.5c-0.7,0.4-1.8,0.8-3.1,0.8c-2.5,0-4-1.6-4-4.2
				c0-2.5,1.2-4.2,3.8-4.2c2.5,0,3.4,1.8,3.4,3.9v0.9H200.4z M201.9,21.1c-1.1,0-1.5,1-1.5,1.9h3C203.3,22,203,21.1,201.9,21.1z"/>
			<path class="st5" d="M212.1,27.8V23c0-1.2-0.5-1.8-1.5-1.8c-0.6,0-1,0.2-1.4,0.5v6.1H207v-8.1h1.5l0.3,0.9
				c0.5-0.5,1.4-1.1,2.6-1.1c2.1,0,2.9,1.2,2.9,3.3v5H212.1z"/>
			<path class="st5" d="M222.5,27.2c-0.5,0.2-1.6,0.7-2.8,0.7c-2.4,0-3.9-1.4-3.9-4.2c0-2.6,1.5-4.2,3.9-4.2c1.1,0,2,0.2,2.8,0.7
				l-0.6,1.5c-0.6-0.3-1.3-0.5-2-0.5c-1.1,0-1.8,0.8-1.8,2.6c0,1.8,0.7,2.6,1.9,2.6c0.8,0,1.7-0.3,2.2-0.6L222.5,27.2z"/>
			<path class="st5" d="M224.6,27.8v-6.6l-0.9-0.2v-1.4h3.1v8.1H224.6z M224.6,16.4h2.2v2h-2.2V16.4z"/>
			<path class="st5" d="M233.7,27.8l-0.3-1c-0.4,0.6-1.2,1.1-2.4,1.1c-1.6,0-2.7-1-2.7-2.6c0-1.5,1.1-2.4,3.1-2.4h1.7v-0.4
				c0-1-0.6-1.4-1.4-1.4c-1,0-1.8,0.2-2.4,0.5l-0.5-1.5c0.8-0.3,1.9-0.7,3.2-0.7c2.3,0,3.3,1.1,3.3,3.1v5.1H233.7z M233.1,24.2h-1.3
				c-0.9,0-1.3,0.4-1.3,1c0,0.7,0.4,1.2,1.2,1.2c0.5,0,1-0.2,1.4-0.5V24.2z"/>
			<path class="st5" d="M115.7,37.8c-0.1-0.5-0.2-0.9-0.2-1.5v-2.5h2.2v11.4h-1.8l-0.2-0.9c-0.3,0.5-1.1,1.1-2.2,1.1
				c-1.8,0-3.3-1.3-3.3-4.2c0-2.7,1.5-4.2,3.5-4.2C114.5,37,115.2,37.3,115.7,37.8z M115.5,39c-0.3-0.2-0.8-0.4-1.5-0.4
				c-1,0-1.7,0.7-1.7,2.6c0,1.9,0.6,2.7,1.6,2.7c0.5,0,1.1-0.3,1.5-0.7V39z"/>
			<path class="st5" d="M121.4,41.8c0,1.3,0.7,2,2.1,2c0.8,0,1.7-0.3,2.4-0.7l0.4,1.5c-0.7,0.4-1.8,0.8-3.1,0.8c-2.5,0-4-1.6-4-4.2
				c0-2.5,1.2-4.2,3.8-4.2c2.5,0,3.4,1.8,3.4,3.9v0.9H121.4z M123,38.6c-1.1,0-1.5,1-1.5,1.9h3C124.4,39.5,124.1,38.6,123,38.6z"/>
			<path class="st5" d="M135.1,45.4c-1.5,0-2.7-0.5-3.6-1.2l0.8-1.7c0.6,0.6,1.8,1.1,2.8,1.1s1.7-0.6,1.7-1.5c0-2.4-5.2-1.2-5.2-5.1
				c0-1.7,1.3-3.1,3.9-3.1c1.3,0,2.4,0.3,3.3,0.8l-0.7,1.7c-0.6-0.4-1.6-0.6-2.6-0.6c-1,0-1.7,0.3-1.7,1.2c0,2,5.2,1.2,5.2,5
				C139.1,43.8,137.7,45.4,135.1,45.4z"/>
			<path class="st5" d="M142.6,41.8c0,1.3,0.7,2,2.1,2c0.8,0,1.7-0.3,2.4-0.7l0.4,1.5c-0.7,0.4-1.8,0.8-3.1,0.8c-2.5,0-4-1.6-4-4.2
				c0-2.5,1.2-4.2,3.8-4.2c2.5,0,3.4,1.8,3.4,3.9v0.9H142.6z M144.2,38.6c-1.1,0-1.5,1-1.5,1.9h3C145.6,39.5,145.3,38.6,144.2,38.6z
				"/>
			<path class="st5" d="M156.7,37.2l0,1.6c-0.4,0-1-0.1-1.5-0.3c0.4,0.3,0.7,0.7,0.8,1.3c0,2-2,2.8-3.3,2.8c-0.3,0-0.7-0.1-1-0.1
				c-0.2,0.1-0.4,0.2-0.4,0.4c0,0.9,5.1-0.1,5.1,2.9c0,1.9-1.8,2.9-3.9,2.9c-1.7,0-3.4-0.7-3.4-2.2c0-1,0.8-1.6,2.2-1.8
				c-1-0.1-2-0.4-2-1.4c0-0.7,0.6-1.2,1.5-1.2c-0.8-0.4-1.5-1.1-1.5-2.3c0-2.2,2-2.8,3.3-2.8C153.5,37,155.3,37.1,156.7,37.2z
				 M152.3,44.8c-0.8,0.1-1.2,0.5-1.2,1.2c0,0.7,0.6,1.2,1.5,1.2c1,0,1.6-0.5,1.6-1.3C154.2,45.2,153.5,44.9,152.3,44.8z M154,39.7
				c0-1-0.8-1.2-1.4-1.2s-1.5,0.2-1.5,1.2c0,1,0.8,1.3,1.5,1.3C153.2,41,154,40.8,154,39.7z"/>
			<path class="st5" d="M163.8,45.3l-0.3-1c-0.4,0.5-1.2,1.2-2.5,1.2c-2,0-2.9-1.1-2.9-3.4v-4.9h2.2v4.9c0,1.2,0.4,1.7,1.4,1.7
				c0.6,0,1.1-0.2,1.5-0.5v-6.1h2.2v8.1H163.8z"/>
			<path class="st5" d="M171.6,39c-0.3-0.1-0.6-0.1-1-0.1c-0.6,0-1.1,0.2-1.5,0.5v5.9H167v-8.1h1.5l0.2,1.1h0c0.2-0.6,1-1.2,1.9-1.2
				c0.4,0,0.8,0.1,0.9,0.1L171.6,39z"/>
			<path class="st5" d="M173.6,45.3v-6.6l-0.9-0.2v-1.4h3.1v8.1H173.6z M173.5,33.8h2.2v2h-2.2V33.8z"/>
			<path class="st5" d="M182.9,37.8c-0.1-0.5-0.2-0.9-0.2-1.5v-2.5h2.2v11.4h-1.8l-0.2-0.9c-0.3,0.5-1.1,1.1-2.2,1.1
				c-1.8,0-3.3-1.3-3.3-4.2c0-2.7,1.5-4.2,3.5-4.2C181.8,37,182.5,37.3,182.9,37.8z M182.7,39c-0.3-0.2-0.8-0.4-1.5-0.4
				c-1,0-1.7,0.7-1.7,2.6c0,1.9,0.6,2.7,1.6,2.7c0.5,0,1.1-0.3,1.5-0.7V39z"/>
			<path class="st5" d="M191.8,45.3l-0.3-1c-0.4,0.6-1.2,1.1-2.4,1.1c-1.6,0-2.7-1-2.7-2.6c0-1.5,1.1-2.4,3.1-2.4h1.7V40
				c0-1-0.6-1.4-1.4-1.4c-1,0-1.8,0.2-2.4,0.5l-0.5-1.5c0.8-0.3,1.9-0.7,3.2-0.7c2.3,0,3.3,1.1,3.3,3.1v5.1H191.8z M191.2,41.7h-1.3
				c-0.9,0-1.3,0.4-1.3,1c0,0.7,0.4,1.2,1.2,1.2c0.5,0,1-0.2,1.4-0.5V41.7z"/>
			<path class="st5" d="M200.4,37.8c-0.1-0.5-0.2-0.9-0.2-1.5v-2.5h2.2v11.4h-1.8l-0.2-0.9c-0.3,0.5-1.1,1.1-2.2,1.1
				c-1.8,0-3.3-1.3-3.3-4.2c0-2.7,1.5-4.2,3.5-4.2C199.3,37,200,37.3,200.4,37.8z M200.2,39c-0.3-0.2-0.8-0.4-1.5-0.4
				c-1,0-1.7,0.7-1.7,2.6c0,1.9,0.6,2.7,1.6,2.7c0.5,0,1.1-0.3,1.5-0.7V39z"/>
			<path class="st5" d="M211.3,45.4c-1.5,0-2.7-0.5-3.6-1.2l0.8-1.7c0.6,0.6,1.8,1.1,2.8,1.1s1.7-0.6,1.7-1.5c0-2.4-5.2-1.2-5.2-5.1
				c0-1.7,1.3-3.1,3.9-3.1c1.3,0,2.4,0.3,3.3,0.8l-0.7,1.7c-0.6-0.4-1.6-0.6-2.6-0.6c-1,0-1.7,0.3-1.7,1.2c0,2,5.2,1.2,5.2,5
				C215.4,43.8,213.9,45.4,211.3,45.4z"/>
			<path class="st5" d="M224.3,41.2c0,2.8-1.4,4.2-3.8,4.2c-2.4,0-3.8-1.5-3.8-4.2c0-2.4,1.3-4.2,3.8-4.2
				C222.9,37,224.3,38.8,224.3,41.2z M222.1,41.2c0-2-0.6-2.6-1.6-2.6c-1,0-1.6,0.7-1.6,2.6c0,1.9,0.5,2.6,1.6,2.6
				S222.1,43.1,222.1,41.2z"/>
			<path class="st5" d="M232.4,44.7c-0.5,0.2-1.6,0.7-2.8,0.7c-2.4,0-3.9-1.4-3.9-4.2c0-2.6,1.5-4.2,3.9-4.2c1.1,0,2,0.2,2.8,0.7
				l-0.6,1.5c-0.6-0.3-1.3-0.5-2-0.5c-1.1,0-1.8,0.8-1.8,2.6c0,1.8,0.7,2.6,1.9,2.6c0.8,0,1.7-0.3,2.2-0.6L232.4,44.7z"/>
			<path class="st5" d="M234.5,45.3v-6.6l-0.9-0.2v-1.4h3.1v8.1H234.5z M234.4,33.8h2.2v2h-2.2V33.8z"/>
			<path class="st5" d="M243.6,45.3l-0.3-1c-0.4,0.6-1.2,1.1-2.4,1.1c-1.6,0-2.7-1-2.7-2.6c0-1.5,1.1-2.4,3.1-2.4h1.7V40
				c0-1-0.6-1.4-1.4-1.4c-1,0-1.8,0.2-2.4,0.5l-0.5-1.5c0.8-0.3,1.9-0.7,3.2-0.7c2.3,0,3.3,1.1,3.3,3.1v5.1H243.6z M243,41.7h-1.3
				c-0.9,0-1.3,0.4-1.3,1c0,0.7,0.4,1.2,1.2,1.2c0.5,0,1-0.2,1.4-0.5V41.7z"/>
			<path class="st5" d="M247,43.1v-9.3h2.1V43c0,0.7,0.4,0.8,1.3,0.8v1.5c0,0-0.6,0.1-1.2,0.1C247.6,45.4,247,44.6,247,43.1z"/>
		</g>
	</g>
</g>
</svg>
